<?xml version="1.0" standalone="no"?>
<!DOCTYPE svg PUBLIC "-//W3C//DTD SVG 1.1//EN" "http://www.w3.org/Graphics/SVG/1.1/DTD/svg11.dtd" >
<svg xmlns="http://www.w3.org/2000/svg">
<metadata></metadata>
<defs>
<font id="tomboybold" horiz-adv-x="1028" >
<font-face units-per-em="2048" ascent="1638" descent="-410" />
<missing-glyph horiz-adv-x="520" />
<glyph horiz-adv-x="2048" />
<glyph horiz-adv-x="2048" />
<glyph horiz-adv-x="682" />
<glyph horiz-adv-x="741" d="M199 938h55q0 -31 16.5 -56.5t43 -44t58 -28.5t66.5 -10t68 10t59.5 28.5t43 44t16.5 56.5h49q0 -39 -16.5 -77t-47 -67.5t-73.5 -48t-99 -18.5q-51 0 -94 17.5t-75.5 47t-51 67.5t-18.5 79z" />
<glyph horiz-adv-x="378" d="M350 1241l58 127l184 -86l-57 -127z" />
<glyph d="M399 1366q0 37 13.5 72t39 63.5t62.5 46t84 17.5q37 0 72 -13.5t63.5 -39t46 -62.5t17.5 -84q0 -37 -13.5 -71.5t-39 -63.5t-62.5 -46.5t-84 -17.5q-37 0 -71.5 13.5t-63.5 39t-46.5 62.5t-17.5 84zM473 1366q0 -59 39 -92t86 -33q59 0 92 39t33 86q0 59 -39 92t-86 33 q-59 0 -92 -39t-33 -86z" />
<glyph unicode="&#xd;" horiz-adv-x="520" />
<glyph unicode=" "  horiz-adv-x="520" />
<glyph unicode="&#x09;" horiz-adv-x="520" />
<glyph unicode="&#xa0;" horiz-adv-x="520" />
<glyph unicode="!" horiz-adv-x="657" d="M27 14l71 181l193 -74l-72 -180zM152 334l473 1089l188 -82l-473 -1089z" />
<glyph unicode="&#x22;" horiz-adv-x="442" d="M160 1053l110 395l160 -45l-111 -395zM438 1047l117 401l156 -45l-117 -402z" />
<glyph unicode="#" horiz-adv-x="1378" d="M47 610q43 2 101.5 2h134.5q14 29 27.5 56.5t27.5 56.5q-33 0 -67.5 1t-75.5 1l4 205q74 -2 129 -2h108q18 37 34.5 70.5t35 70.5l39 78t47.5 90l180 -94q-35 -66 -59.5 -115t-48.5 -98h229q20 45 39.5 84t37 74.5t35 72.5t37.5 78l185 -86q-39 -84 -63.5 -135t-45.5 -90 q35 -2 73 -2t85 -2l-8 -205q-82 4 -138.5 4t-109.5 2q-14 -29 -28.5 -59.5t-24.5 -55.5q33 2 69.5 2t83.5 2l8 -204q-86 -4 -145 -4t-117 -2q-33 -66 -67.5 -142t-67.5 -151l-188 82q14 35 26.5 61.5t23.5 50t22.5 47t23.5 52.5h-117.5t-109.5 2q-31 -63 -66 -136t-76 -161 l-184 86q27 57 52.5 109t47.5 102q-41 0 -73.5 -1t-61.5 -1zM508 610h229q12 23 28 54.5t30 62.5h-62h-64.5t-59 -1t-46.5 -1q-14 -29 -26.5 -57.5t-28.5 -57.5z" />
<glyph unicode="$" horiz-adv-x="1126" d="M-98 362q0 86 49 162t160 160l127 -162q-84 -66 -108 -104.5t-24 -59.5q0 -6 4.5 -13t17.5 -14t37.5 -11.5t65.5 -4.5q37 102 77 196.5t75 182.5q-123 35 -189.5 87.5t-62.5 142.5q2 55 40 121.5t142 128.5q53 33 140.5 69.5t187.5 44.5q23 47 46.5 99.5t47.5 107.5 l185 -86q-12 -29 -26.5 -57.5t-29.5 -57.5q98 -16 149.5 -71.5t51.5 -132.5q0 -41 -8 -75t-21 -77l-196 61q8 29 15 52.5t3 29.5q-4 8 -30.5 9.5t-55.5 1.5q-35 -80 -58.5 -138.5t-51.5 -117.5q12 -2 46.5 -11.5t75.5 -19.5q98 -25 146.5 -84t52.5 -137q2 -55 -18.5 -105.5 t-58.5 -93.5t-90 -80t-114 -67q-76 -39 -159.5 -67t-161.5 -42q-16 -45 -26.5 -85t-20.5 -95l-203 41q4 25 12.5 60.5t18.5 64.5q-125 14 -192.5 77.5t-67.5 169.5zM346 938q-2 -12 31 -24.5t86 -28.5q16 35 36 83t36 83q-98 -31 -142.5 -64t-46.5 -49zM469 365 q35 10 69.5 24t69.5 33q53 27 86 49.5t51.5 41.5t25.5 34.5t7 30.5q0 6 -7 13t-44 17q-41 12 -81 21.5t-62 13.5q-23 -53 -53.5 -129t-61.5 -149z" />
<glyph unicode="%" horiz-adv-x="1536" d="M-14 850q0 92 43 196.5t115.5 193.5t167 148.5t196.5 59.5q61 0 112.5 -22.5t87 -60.5t55 -91.5t19.5 -114.5q0 -111 -50 -217t-128 -189t-172 -133.5t-182 -50.5q-63 0 -112.5 22.5t-83.5 61.5t-51 90.5t-17 106.5zM76 -6q176 227 341 430t288 352q129 160 276 339 t285 355l164 -122q-20 -27 -61.5 -78t-93.5 -117t-111.5 -139.5t-117 -144t-107.5 -133t-85 -103.5q-41 -49 -92 -111.5t-106.5 -130t-114 -139.5t-113.5 -140.5t-103.5 -130t-84.5 -110.5zM195 842q0 -18 6 -44t47 -26q43 0 100.5 36t108.5 93t87 125t36 129 q0 29 -14.5 58.5t-59.5 29.5q-37 0 -90.5 -33.5t-102.5 -90t-83.5 -129t-34.5 -148.5zM725 154q0 92 43 196.5t115.5 193.5t167 148.5t196.5 59.5q61 0 112.5 -22.5t87.5 -60.5t55.5 -91.5t19.5 -114.5q0 -111 -50.5 -217.5t-128 -189.5t-172 -133t-182.5 -50 q-63 0 -112.5 22.5t-83 61.5t-51 90t-17.5 107zM934 145q0 -18 6 -43.5t47 -25.5q43 0 100.5 35.5t108.5 93t87 125.5t36 129q0 29 -14.5 58.5t-59.5 29.5q-37 0 -90 -34t-102 -90t-84 -129t-35 -149z" />
<glyph unicode="&#x26;" horiz-adv-x="1351" d="M-55 248q0 74 24.5 138.5t66.5 117.5t95 97t111 75q35 18 85 40.5t103 45.5q-23 45 -34 91t-9 114q2 90 36 172t94.5 143t147.5 97t195 36q84 0 143.5 -24.5t96.5 -62.5t53 -87t16 -98q0 -90 -55 -192.5t-172 -174.5q-23 -14 -42 -25.5t-45 -24.5t-59.5 -29.5 t-82.5 -37.5q53 -90 92 -156.5t80 -137.5q23 25 39 58.5t18 61.5q4 33 -8 78l57 86q78 2 164 2t148 4v-204q-29 0 -80.5 -2.5t-79.5 -2.5q-10 -57 -42 -122.5t-108 -149.5q20 -35 46 -85t46 -97l-184 -90q-16 37 -32.5 71.5t-32.5 65.5q-117 -78 -226.5 -115t-220.5 -39 q-51 0 -127 17.5t-146.5 59.5t-120.5 111.5t-50 174.5zM150 248q0 -31 18 -59.5t52 -50t80 -35t101 -13.5q68 0 158 33t176 96q-51 86 -106.5 179.5t-106.5 181.5q-59 -23 -105 -45.5t-81 -38.5q-37 -18 -70 -46t-59.5 -61t-41.5 -68.5t-15 -72.5zM592 973q-4 -31 2 -68 t22 -65q51 23 85 39t57.5 27.5t40 21.5t32.5 20q74 47 104 102.5t30 92.5q0 68 -105 67q-127 0 -192.5 -66.5t-75.5 -170.5z" />
<glyph unicode="'" horiz-adv-x="198" d="M215 1042l117 402l155 -45l-116 -402z" />
<glyph unicode="(" horiz-adv-x="774" d="M61 319q0 184 60.5 374t195.5 399q111 168 250.5 314t319.5 288l127 -160q-166 -129 -299 -270.5t-232 -290.5q-104 -160 -159.5 -324t-57.5 -330q-2 -123 30 -231t73 -188l-181 -95q-55 106 -91 229.5t-36 284.5z" />
<glyph unicode=")" horiz-adv-x="882" d="M-174 -80q178 129 330.5 271.5t269.5 308.5q100 141 160.5 298.5t62.5 313.5q2 94 -16.5 191.5t-79.5 226.5l184 90q74 -154 96.5 -276.5t20.5 -231.5q-2 -199 -72.5 -382t-187.5 -349q-129 -180 -291 -331.5t-354 -293.5z" />
<glyph unicode="*" horiz-adv-x="710" d="M190 1438l91 135l192 -133l64 221l155 -47l-63 -223l223 2l8 -164l-233 -2l84 -223l-156 -46l-82 213l-176 -143l-102 131l182 148z" />
<glyph unicode="+" horiz-adv-x="802" d="M123 371v67h246v271h73v-271h248v-67h-248v-271h-73v271h-246z" />
<glyph unicode="," horiz-adv-x="299" d="M-264 -236q18 31 41.5 72t50.5 88q20 37 34.5 63.5t29 51t28.5 52.5t37 65l176 -103q-23 -37 -37 -64.5t-28.5 -52t-28.5 -51t-35 -63.5q-29 -47 -49.5 -87t-42.5 -77z" />
<glyph unicode="-" horiz-adv-x="634" d="M96 741l414 9l4 -185l-414 -8z" />
<glyph unicode="." horiz-adv-x="397" d="M-76 55l99 172l176 -102l-99 -172z" />
<glyph unicode="/" horiz-adv-x="991" d="M-135 -41q45 68 124 176.5t172 238.5t195.5 270t198.5 269q57 80 136 186.5t158 214t144.5 202t100.5 145.5l172 -111q-47 -72 -109.5 -159.5t-134.5 -186t-148.5 -204t-154.5 -209.5q-33 -45 -83 -114t-110.5 -151t-127 -173t-132 -182t-125 -175t-104.5 -152z" />
<glyph unicode="0" horiz-adv-x="1509" d="M39 434q0 193 75.5 374t207.5 341q74 88 155.5 155.5t164.5 111.5t166 66.5t159 22.5q117 0 211 -45t159 -137q55 -76 75 -166t20 -184q0 -104 -25 -210t-67 -206t-99 -192.5t-123 -169.5q-141 -166 -288.5 -238t-282.5 -72q-123 0 -216 45t-155 113q-66 72 -101.5 178.5 t-35.5 212.5zM244 434q0 -160 84 -252t219 -92q86 0 195.5 52.5t220.5 183.5q55 63 103 142t84 163t56.5 172t20.5 170q0 154 -62.5 240.5t-197.5 86.5q-104 0 -235.5 -67.5t-254.5 -214.5q-111 -131 -172 -280.5t-61 -303.5z" />
<glyph unicode="1" horiz-adv-x="739" d="M35 49q23 68 49.5 137.5t62 151.5t81.5 181t108 229q27 53 51 105t49 99q-39 -27 -76.5 -50t-74.5 -42l-95 180q111 57 240 160t252 225l162 -122q-74 -139 -157 -303t-163 -332q-47 -100 -92 -196.5t-83 -185.5t-69.5 -166t-52.5 -136z" />
<glyph unicode="2" horiz-adv-x="1189" d="M-180 98q178 98 319.5 187.5t252 169.5t194.5 151.5t149 136.5q156 154 215.5 267.5t59.5 179.5q0 45 -20.5 63.5t-65.5 18.5q-55 0 -111.5 -25.5t-111 -72t-103.5 -107.5t-90 -135l-180 102q123 209 275.5 326t320.5 117q61 0 113.5 -19.5t92 -56.5t62 -90.5 t22.5 -120.5q0 -113 -78.5 -266.5t-256.5 -327.5q-96 -94 -231.5 -203.5t-330.5 -234.5q96 8 176 12t173 4q37 0 93 -1t115 -5l-12 -205q-98 6 -186 6q-72 0 -127 -2t-119.5 -7t-148.5 -13t-209 -23q-29 -4 -50.5 -6t-43 -3t-45 -4t-54.5 -5z" />
<glyph unicode="3" horiz-adv-x="1280" d="M-139 -8l65 196q70 -23 148 -40t182 -17q111 0 216.5 26.5t209.5 100.5q86 59 145.5 144t59.5 178q0 98 -80 151t-242 53h-29.5t-24.5 -1t-31.5 -3t-49.5 -6l-63 193q51 27 115.5 64.5t132 77.5t131 79t114.5 69q-72 -4 -130 -5t-110.5 -1t-101.5 1t-102 5l20 205 q37 -6 111 -6t155.5 1t154.5 4t108 5q70 4 137 7.5t125 3.5l76 -172q-47 -37 -117 -84t-144.5 -93.5t-146.5 -89.5t-123 -73q57 -14 114.5 -45t102.5 -78t74 -112.5t29 -149.5q0 -78 -25 -149t-64.5 -133t-93 -115.5t-108.5 -92.5q-129 -90 -273.5 -127t-271.5 -37 q-129 0 -229.5 21.5t-165.5 44.5z" />
<glyph unicode="4" horiz-adv-x="1280" d="M-12 549q98 76 184 142.5t171 132t171 134t183.5 149.5t212 178t253.5 218l160 -119q-35 -86 -82 -193.5t-96 -217t-96.5 -209.5t-81.5 -174q43 -2 80.5 -2t66.5 -2l-8 -205q-59 4 -115.5 4h-118.5q-45 -102 -90 -202.5t-88 -217.5l-192 70q18 53 36.5 98t36 86t36 81 t36.5 83q-147 -4 -292.5 -9t-305.5 -9zM348 580q139 4 230.5 7t162.5 3q25 51 53.5 112.5t57.5 126t56.5 127t52.5 117.5q-162 -133 -312.5 -253.5t-300.5 -239.5z" />
<glyph unicode="5" horiz-adv-x="1314" d="M-100 -70l20 205q66 -6 108 -8t78 -2q186 -2 345 41t276 115q113 70 176.5 158.5t63.5 187.5q0 86 -69 144t-222 58q-72 0 -151 -14t-189 -51l-111 164q47 51 103.5 115.5t117 133t123 139t121.5 136.5l80 35q49 -2 82 -3t60.5 -2t58 -2t73.5 -1h55.5t50.5 1t56.5 3 t73.5 8l20 -205q-41 -4 -72.5 -6t-61 -4t-58.5 -2h-64q-37 0 -65.5 1t-54 1t-53 1t-62.5 3q-59 -68 -115.5 -129t-107.5 -121q23 2 45 3t45 1q98 0 187 -24.5t158 -75.5t109.5 -127t40.5 -180q0 -88 -29.5 -167t-79.5 -146.5t-113.5 -123t-131.5 -96.5q-143 -86 -318 -130 t-393 -44q-51 0 -98 3t-108 7z" />
<glyph unicode="6" horiz-adv-x="1415" d="M-47 254q0 154 100.5 330t296.5 360q168 160 379 297t453 260l94 -184q-229 -117 -410.5 -232.5t-316.5 -238.5q127 66 230.5 95.5t181.5 29.5q147 0 233 -86t86 -221q0 -129 -83 -253t-224 -231q-78 -59 -163 -107t-173 -83t-172 -53.5t-158 -18.5q-92 0 -159.5 28.5 t-110.5 75t-63.5 106.5t-20.5 126zM158 254q0 -57 29.5 -94t119.5 -37q51 0 118 15.5t137.5 44t143 69.5t140.5 92q123 94 176 173t53 147q0 53 -24.5 77.5t-89.5 24.5q-70 0 -176.5 -36t-268.5 -144l-94 141q-141 -143 -202.5 -263t-61.5 -210z" />
<glyph unicode="7" horiz-adv-x="1198" d="M-94 -10q184 281 367.5 510t357.5 409q88 92 178 175t178 157q-444 -20 -635 0l25 205q61 -6 147 -9t200 -1t261.5 10t331.5 20l63 -188q-74 -49 -145.5 -102.5t-144 -115t-149.5 -134t-163 -160.5q-178 -184 -350 -399t-350 -488z" />
<glyph unicode="8" horiz-adv-x="1415" d="M-63 270q-2 55 21.5 115.5t65.5 121t101 119t131 107.5q65 43 137 78q-49 63 -49 162q0 111 68.5 202t179.5 160q100 63 211.5 95t228.5 32q190 0 291.5 -82t101.5 -217q0 -74 -34.5 -135t-82.5 -108.5t-99.5 -80t-86.5 -48.5q43 -47 67.5 -107.5t24.5 -130.5 q0 -68 -28.5 -136.5t-75.5 -132t-107.5 -118.5t-121.5 -98q-145 -100 -276.5 -131t-250.5 -31q-193 0 -304 99t-113 265zM139 274q2 -76 50.5 -119.5t164.5 -43.5q86 0 195.5 26.5t216.5 98.5q49 33 93 74.5t78 84.5t53.5 84t19.5 74q0 43 -18.5 72.5t-45 47t-56.5 23.5 t-50 6q-39 -8 -76 -9t-57 -1q-92 -14 -178.5 -46t-157.5 -81q-55 -37 -98.5 -79t-73 -81.5t-45 -74.5t-15.5 -56zM549 973q0 -16 5 -29.5t20.5 -24t46 -16.5t81.5 -6q68 0 124.5 10.5t99.5 23.5t71.5 26.5t44.5 21.5q45 23 78 50.5t55.5 53t34 47t11.5 33.5q0 18 -7.5 34.5 t-29 30t-58 21.5t-94.5 8q-90 0 -177 -26.5t-154.5 -68.5t-109.5 -92t-42 -97z" />
<glyph unicode="9" horiz-adv-x="1423" d="M76 700q0 82 33.5 164t96 159t149.5 146.5t194 128.5q160 90 294 130t220 40t154.5 -26.5t117.5 -75.5t76 -115.5t27 -146.5q0 -160 -97.5 -331t-300.5 -355q-193 -174 -410.5 -302t-447.5 -239l-86 184q98 45 204 101.5t210 120t204.5 135t186.5 151.5q8 8 16.5 15.5 t16.5 15.5q-160 -104 -287 -150.5t-244 -46.5q-68 0 -127 19.5t-103 56.5t-70.5 92.5t-26.5 128.5zM281 700q0 -47 28.5 -69.5t93.5 -22.5q80 0 194 44t255 139l111 -162q141 141 205.5 263t64.5 212q0 160 -170 160q-55 0 -163.5 -33t-252.5 -113q-178 -98 -272 -211.5 t-94 -206.5z" />
<glyph unicode=":" horiz-adv-x="559" d="M-45 72l90 143l172 -111l-90 -143zM182 756l99 172l176 -103l-99 -172z" />
<glyph unicode=";" horiz-adv-x="739" d="M-59 -233q18 31 41.5 71.5t50.5 87.5q20 37 34.5 63.5t29 51.5t28.5 52.5t37 64.5l176 -103q-23 -37 -37 -64.5t-28.5 -52t-29 -51t-34.5 -63.5q-25 -43 -47.5 -85t-44.5 -79zM311 694l99 172l176 -102l-99 -172z" />
<glyph unicode="&#x3c;" horiz-adv-x="919" d="M154 360v82l567 256v-73l-492 -224l492 -225v-74z" />
<glyph unicode="=" horiz-adv-x="876" d="M123 262v66h641v-66h-641zM123 471v66h641v-66h-641z" />
<glyph unicode="&#x3e;" horiz-adv-x="919" d="M211 102v74l494 225l-494 224v73l567 -256v-82z" />
<glyph unicode="?" horiz-adv-x="972" d="M80 12l92 160l180 -98l-92 -162zM215 319q25 49 59.5 96.5t74.5 90.5t82 83t81 79q106 104 178 181t114 134t59.5 100t17.5 80t-16.5 59.5t-41.5 22.5t-60.5 -11t-83.5 -39t-107.5 -75t-131.5 -119l-143 144q170 170 296 238.5t234 66.5q61 0 109.5 -25.5t81.5 -66.5 t50 -93.5t17 -105.5q0 -68 -24.5 -135.5t-76.5 -142t-133 -162.5t-196 -199q-57 -55 -97 -95t-69.5 -74t-52 -64.5t-45.5 -69.5z" />
<glyph unicode="@" horiz-adv-x="1480" d="M119 274q0 154 62.5 275t162.5 206t225 130t248 45t230.5 -45t179.5 -144q53 -72 76.5 -147.5t23.5 -151.5q0 -86 -25.5 -165.5t-70.5 -139.5q-47 -66 -107.5 -104.5t-119.5 -38.5q-47 0 -89.5 25.5t-76.5 80.5q-59 -51 -115.5 -75.5t-106.5 -24.5q-72 0 -115.5 49 t-43.5 150q0 76 25.5 153.5t69.5 140t104.5 101.5t129.5 39q33 0 63 -10.5t52 -32.5q16 -16 35 -17q29 0 51 54l88 -25q-8 -29 -24.5 -97.5t-38.5 -154.5q-23 -86 -38.5 -146.5t-15.5 -76.5q0 -41 21.5 -59.5t50.5 -18.5q35 0 86 34t88 89q39 57 58.5 128t19.5 142 q0 94 -31.5 180.5t-97.5 139.5q-72 61 -162 93t-176 32q-111 0 -214 -46t-182 -129t-126 -199t-47 -255q0 -127 45 -220t117.5 -156.5t166 -94.5t189.5 -31q92 0 182 25.5t166 75.5l14 -35q-80 -53 -172 -80t-190 -27q-119 0 -234.5 38t-207 109.5t-147.5 175t-56 236.5z M584 203q0 -23 4 -48.5t14 -47t26.5 -35t41.5 -13.5q45 0 94 40t74 85q10 18 23 59.5t24.5 88.5t19.5 92t8 74q-12 31 -32.5 54t-55.5 23q-31 0 -72.5 -25.5t-79.5 -73.5t-63.5 -116.5t-25.5 -156.5z" />
<glyph unicode="A" horiz-adv-x="1468" d="M-168 98q59 55 123.5 121t134.5 137h-135v205h95t79 1t75 2t83 1q176 193 364.5 415t382.5 464l183 -70q-8 -121 -14.5 -224t-11.5 -195.5t-10 -179.5t-12 -175h109v-199q-29 -2 -57.5 -2t-59.5 -4q-4 -72 -5 -128t-1 -101t1 -80t3 -66l-205 -8q-3 63 -3 128q0 32 1 66 q2 100 2 179q-174 -8 -315 -13t-264 -10q-61 -68 -110.5 -120t-95.5 -98t-93 -92t-105 -101zM567 573q98 4 205 8.5t193 8.5q6 100 12 216t16 263q-37 -43 -87 -103.5t-106.5 -126t-116 -135.5t-116.5 -131z" />
<glyph unicode="B" horiz-adv-x="1370" d="M-78 90l498 1133q-27 -6 -52.5 -12.5t-54.5 -14.5l-53 197q82 20 146.5 33.5t119 21.5t100.5 10t93 2q217 0 343 -75.5t126 -210.5q0 -88 -56.5 -160t-146.5 -129q137 -49 211 -140.5t74 -207.5q0 -80 -34 -152t-91.5 -133.5t-134 -112.5t-162.5 -88 q-84 -37 -178.5 -62.5t-194.5 -42t-201.5 -24.5t-199.5 -8v111zM160 121q166 6 319.5 32.5t286.5 86.5q143 63 221 141t78 156q0 33 -21.5 67.5t-68.5 63t-123 46t-186 17.5q-41 0 -105.5 -4t-142.5 -18zM516 930q78 14 153.5 36.5t147.5 57.5q86 41 126 84t40 66 q0 8 -11 22t-41 27.5t-81 22.5t-131 9h-29.5t-32.5 -2z" />
<glyph unicode="C" horiz-adv-x="1009" d="M-29 350q0 94 29 196.5t81 205t125 201t163 184.5q176 172 350 258t315 86q31 0 50.5 -2t35 -5.5t29.5 -7.5t33 -10l-70 -192q-16 6 -30.5 9t-47.5 3q-45 0 -104.5 -16.5t-127 -51t-142 -88t-148.5 -127.5q-80 -78 -142.5 -161.5t-105.5 -166.5t-65.5 -164t-22.5 -151 q0 -111 45 -168t113 -57q47 0 128 41t173 147l156 -135q-117 -135 -238 -196.5t-219 -61.5q-102 0 -171 41t-112 103.5t-61.5 138.5t-18.5 147z" />
<glyph unicode="D" horiz-adv-x="1224" d="M-205 -94l17 205q25 0 34 -1t15 -1h15h32q74 162 139.5 310t128 289.5t122.5 281.5t126 290q-33 -2 -78 -12l-37 200q111 20 176.5 24.5t116.5 4.5q158 0 281 -39t208 -108.5t130 -167t45 -213.5q0 -102 -35 -211t-101.5 -213.5t-159.5 -201.5t-210 -177 q-205 -141 -428 -201.5t-451 -60.5h-38.5t-47.5 2zM143 131q133 23 258 72t244 131q100 68 178 147.5t130.5 162.5t80 166t27.5 159q0 137 -96.5 225t-313.5 96q-129 -295 -253 -578.5t-255 -580.5z" />
<glyph unicode="E" horiz-adv-x="1126" d="M-127 115q16 0 42 1t60 3l285 663h-43l-4 205q29 0 67.5 1t67.5 1l103 236h-45l8 207q51 -4 106 -7t139 -2.5t209 2.5t316 9l8 -205q-184 -6 -309 -8t-211 -2l-97 -222q72 4 156 8.5t201 10.5l12 -205q-80 -4 -143.5 -7t-116.5 -6t-100 -5t-97 -5l-282 -656 q68 2 144.5 4.5t152.5 6.5t146.5 7.5t123.5 5.5l4 -205q-215 -10 -431 -19.5t-464 -21.5z" />
<glyph unicode="F" horiz-adv-x="1017" d="M-74 41l330 752h-57l14 198q39 2 70.5 3t60.5 1l111 248q-20 2 -43 2h-52v205q115 -2 220.5 -3t206 -3t198.5 -3t201 -3l-4 -205q-88 0 -222.5 4t-281.5 4l-109 -246q74 0 163 1t196 3l4 -204q-143 -4 -255 -4h-198l-364 -832z" />
<glyph unicode="G" horiz-adv-x="1388" d="M2 375q0 104 25.5 203.5t70.5 189.5t102.5 169t123.5 144q113 113 233.5 189t247.5 122t256 66.5t258 20.5v-205q-279 0 -486.5 -90t-361.5 -246q-55 -57 -104.5 -125t-84 -140.5t-55 -148t-20.5 -149.5q0 -123 51 -190.5t131 -67.5q121 0 273.5 113.5t338.5 351.5 q12 29 29 61.5t33 69.5q-82 -12 -149.5 -22.5t-127 -17.5t-114 -12.5t-107.5 -9.5l-16 205q78 4 170 15.5t185 23.5t179 26.5t154 24.5l92 -145q-80 -168 -138 -297t-101 -227.5t-74 -172t-54.5 -134t-42 -112t-36.5 -104.5l-187 64q18 59 42.5 135.5t47.5 144.5 q-94 -88 -183 -137t-214 -49q-63 0 -132 24.5t-125 80t-93 143.5t-37 215z" />
<glyph unicode="H" horiz-adv-x="1478" d="M-78 66l299 692h-67l-7 203l164 6l193 442l188 -82l-155 -358q152 4 309.5 8t353.5 8l180 424l189 -82l-574 -1343l-188 82l305 712q-188 -6 -353 -10t-310 -4l-338 -780z" />
<glyph unicode="I" horiz-adv-x="477" d="M-78 63l549 1377l188 -78l-548 -1376z" />
<glyph unicode="J" horiz-adv-x="999" d="M-315 -186l73 192q53 -21 107 -21q15 0 31 1q69 8 135 51q59 41 112.5 110.5t104.5 174.5q6 12 46 98t99.5 216t129 287.5t134.5 313.5q-63 0 -124.5 -2t-122.5 -2v197q74 0 161.5 2t185 6t199 8t201.5 8l12 -197q-82 -4 -147.5 -6t-136.5 -6q-55 -135 -123 -289.5 t-132.5 -297t-116.5 -257t-77 -165.5q-74 -162 -157.5 -253.5t-176.5 -140.5q-113 -59 -222 -60h-6q-106 0 -189 32z" />
<glyph unicode="K" horiz-adv-x="1163" d="M-119 70l641 1335l185 -90l-158 -328l735 436l102 -176l-763 -452q45 -129 90 -249t85 -222.5t76.5 -184.5t67.5 -139l-180 -98q-35 61 -69 136t-71.5 169t-81.5 213t-96 268l-53 -31l-325 -677z" />
<glyph unicode="L" horiz-adv-x="983" d="M-98 127h12l590 1315l188 -82l-547 -1218q102 4 237.5 7t305.5 3v-205q-309 0 -496.5 -9.5t-273.5 -15.5z" />
<glyph unicode="M" horiz-adv-x="1918" d="M-203 80q57 74 120 162t126 182t124.5 191.5t117.5 189.5q68 111 110.5 184.5t76.5 134t65.5 120t76.5 142.5l193 -53q-2 -53 -5 -120.5t-5 -140.5t-4 -145.5t-2 -131.5v-249t8 -239q31 41 61.5 83t64 91t74.5 109.5t95 140.5q86 129 142 217t98 157t75 129t74 134 l192 -55q-14 -223 -21 -415.5t-12 -367.5q-2 -75 -2 -147q0 -63 2 -122q4 -128 9 -249l-205 -8q-6 123 -8 249q-1 63 -1 127t1 128q2 113 4 208t6 185q-45 -68 -99.5 -149.5t-138.5 -212.5q-104 -160 -213.5 -309.5t-201.5 -268.5l-185 57q-6 111 -11 184.5t-8 141.5 t-4 147.5t-1 204.5v76t1 54.5t1 43v43.5q-27 -45 -56.5 -97t-70.5 -118q-63 -104 -124 -199.5t-121 -185.5t-123.5 -179t-135.5 -181z" />
<glyph unicode="N" horiz-adv-x="1460" d="M-119 33q43 98 93.5 204.5t97.5 206.5q109 233 179.5 397.5t114.5 275t64.5 174t26.5 98.5l202 -9q6 -74 15.5 -136t23 -134t33 -159t49.5 -210q29 -119 57.5 -227t61.5 -205q18 41 46 100.5t59.5 128t66.5 141.5t68 142q53 113 91 197t64.5 146.5t45 109.5t30.5 86 l193 -66q-31 -92 -88.5 -232t-133.5 -294q-55 -113 -103 -213t-92 -197.5t-87 -194.5t-88 -206l-195 16q-18 74 -39.5 151t-42 148.5t-39 134t-30.5 109.5q-12 43 -22.5 86t-23 94.5t-26.5 111.5t-33 138q-25 -61 -48 -117.5t-54 -122t-70 -149.5t-92 -199 q-61 -133 -107.5 -232t-78.5 -175z" />
<glyph unicode="O" horiz-adv-x="1460" d="M0 420q0 104 25.5 208.5t71.5 203t107.5 188.5t135.5 166q80 82 161 139t157.5 91t148.5 49.5t133 15.5q121 0 211 -41t150.5 -112t91 -165t30.5 -200q0 -111 -22.5 -214.5t-61.5 -197.5t-93 -178t-118 -158q-162 -184 -324.5 -267t-299.5 -83q-127 0 -221.5 46t-158 123 t-94 177t-30.5 209zM205 420q0 -74 18.5 -138.5t56 -111.5t94 -73.5t130.5 -26.5q90 0 214 64.5t255 215.5q106 125 176 280t70 333q0 141 -68 227t-211 86q-43 0 -94 -10.5t-108.5 -37t-120 -71.5t-130.5 -115q-61 -66 -113 -139.5t-89 -153t-58.5 -163.5t-21.5 -166z" />
<glyph unicode="P" horiz-adv-x="1171" d="M-47 31l469 1171q-47 -8 -95 -15t-98 -18l-32 201q154 29 308 52.5t314 23.5q109 0 200 -23.5t157.5 -70.5t103.5 -116t37 -157q0 -74 -26.5 -140.5t-73 -123.5t-105.5 -105t-125 -85q-70 -39 -149.5 -70t-164.5 -54.5t-172 -40t-167 -24.5l-193 -483zM422 655 q129 18 238.5 52t224.5 98q104 57 165.5 130t61.5 144q0 66 -67.5 114t-225.5 48q-39 0 -80 -3t-86 -7z" />
<glyph unicode="Q" horiz-adv-x="1423" d="M-14 403q0 92 26.5 194.5t72.5 203t109.5 196t137.5 174.5q141 154 292.5 228t295.5 74q113 0 202.5 -40t153 -110t96.5 -166t33 -209q0 -162 -49 -301t-115.5 -247.5t-135.5 -182.5t-106 -104q23 -47 46.5 -95.5t52.5 -99.5l-180 -98q-23 41 -43.5 83t-40.5 83 q-98 -59 -187.5 -87t-165.5 -28q-100 0 -190 38t-157.5 107.5t-107.5 168t-40 218.5zM190 403q0 -68 19.5 -127t57.5 -104t92.5 -70.5t121.5 -25.5q49 0 118 21.5t146 74.5q-61 135 -103 250t-69 205l197 57q25 -78 57.5 -171t79.5 -204q47 49 99.5 114.5t95.5 145.5 t70.5 175t27.5 204q0 147 -74.5 233.5t-205.5 86.5q-94 0 -207 -55.5t-230 -180.5q-68 -72 -121 -151.5t-92 -162.5t-59.5 -163t-20.5 -152z" />
<glyph unicode="R" horiz-adv-x="1062" d="M-92 31l485 1153q-27 -4 -53.5 -7t-54.5 -8l-29 205q121 16 212 25.5t159.5 15.5t122 8t96.5 2h11q79 -1 143 -27q68 -28 117.5 -76t75.5 -111.5t26 -131.5q0 -74 -25 -135t-66 -113.5t-98 -95.5t-121 -76q-98 -51 -212.5 -81.5t-225.5 -47.5q25 -55 59.5 -128.5 t74.5 -149.5t82 -146.5t77 -119.5l-168 -119q-47 63 -90 136t-81 147.5t-72 145.5t-58 130l-199 -473zM424 731q104 14 207.5 40t183.5 69q88 47 143.5 109.5t55.5 129.5q0 53 -40 97.5t-124 44.5q-45 0 -96.5 -2t-128.5 -9z" />
<glyph unicode="S" horiz-adv-x="1257" d="M-131 174q0 119 65.5 217t159.5 176l131 -159q-59 -49 -105 -108.5t-46 -125.5q0 -18 6 -34.5t23.5 -29t48 -20.5t79.5 -8q37 0 93.5 9t123 27.5t137 45t136.5 63.5q133 74 189.5 139.5t56.5 122.5q0 49 -46.5 67.5t-138.5 43.5q-176 47 -286.5 82t-163.5 63 q-55 31 -98.5 82.5t-43.5 133.5q0 98 62.5 180t171.5 147q117 70 268.5 115t311.5 45q55 0 108 -8t95 -33t69 -70t31 -118q0 -14 -4.5 -41t-12.5 -60t-21.5 -65.5t-27.5 -59.5l-184 92q29 47 35 78t6 54q0 12 -24.5 18t-88.5 6q-119 0 -237.5 -36t-217.5 -93 q-76 -45 -105.5 -85t-29.5 -66q0 -10 12.5 -19.5t28 -18t31.5 -15.5t27 -11q106 -41 223 -67.5t237 -65.5q92 -29 154.5 -96.5t62.5 -178.5q0 -135 -93 -243.5t-259 -198.5q-74 -41 -157.5 -71.5t-163.5 -53t-149.5 -34t-117.5 -11.5q-90 0 -157.5 23.5t-112.5 64.5 t-68.5 94.5t-23.5 114.5z" />
<glyph unicode="T" horiz-adv-x="1044" d="M129 -14l561 1226q-63 -4 -143 -7t-148 -7l-8 205q80 4 198 10t241.5 13.5t240.5 13.5t197 12l16 -207q-90 -6 -188.5 -11t-177.5 -9l-605 -1325z" />
<glyph unicode="U" horiz-adv-x="1415" d="M-33 90q0 92 53.5 235.5t131.5 317.5q37 84 76.5 167t83.5 170t92.5 182t103.5 204l180 -94q-111 -213 -191.5 -378t-146.5 -312q-59 -131 -101 -233.5t-61 -172.5q78 51 193 140.5t270 230.5q68 61 143.5 134t151.5 151.5t148.5 162.5t136.5 168q14 35 28.5 71t38.5 95 l189 -78q-41 -102 -78 -190t-74 -173t-76.5 -174t-84.5 -190q-41 -92 -76 -171t-66 -149.5t-58.5 -137t-55.5 -136.5l-189 74q16 41 43 103.5t58.5 138.5t67.5 157.5t73 163.5q-96 -94 -194.5 -184t-194 -168t-182 -141.5t-160.5 -104.5q-41 -23 -69 -32t-58 -9 q-43 0 -71 15.5t-44 39t-23.5 52t-7.5 55.5z" />
<glyph unicode="V" horiz-adv-x="1171" d="M160 -23q20 201 33.5 356.5t21.5 280.5q8 126 11 224q2 74 2 140v43q-1 85 -6 163t-13 159l205 17q8 -102 13 -200.5t5 -213.5t-8 -256t-23 -325q106 143 197.5 259.5t188 230.5t208 234.5t258.5 274.5l148 -139q-199 -209 -356.5 -386t-283.5 -334t-225.5 -301.5 t-185.5 -287.5z" />
<glyph unicode="W" horiz-adv-x="1937" d="M184 1319l189 82q14 -33 30.5 -121t34.5 -264q16 -143 28.5 -306t22.5 -345q37 76 82 159.5t109 198.5q49 90 88 157.5t84 139.5t103.5 160t148.5 221l186 -70q-12 -88 -20 -162.5t-14.5 -146.5t-11.5 -146.5t-7 -162.5q-2 -53 -3 -110.5t-3 -113t-2 -106.5v-90 q82 139 159.5 265t149.5 241q45 74 88 142.5t87 139t90 146.5t100 162l176 -107q-39 -63 -88 -141t-99.5 -157t-97.5 -154.5t-84 -137.5q-113 -186 -233.5 -382.5t-249.5 -418.5l-191 48q-6 98 -9 177q-3 80 -4 154q0 37 -0.5 75.5t0.5 78.5q1 80 5 184q4 98 7 178t7 150 q-49 -80 -92 -152.5t-90 -158.5q-68 -123 -119 -218.5t-91 -178.5t-75.5 -157.5t-72.5 -154.5l-195 39q-8 174 -17 321.5t-18.5 274.5t-18.5 236.5t-20 207.5q-10 115 -21 191t-28 133z" />
<glyph unicode="X" horiz-adv-x="1171" d="M-154 139q53 51 124 117t154 139.5t173 154.5t180 163q-47 182 -82 338.5t-53 267.5l201 33q16 -88 42.5 -212t63.5 -272q80 72 159 145.5t148.5 138.5t124 116t82.5 82l148 -144q-53 -53 -132 -129t-165 -155.5t-168 -153.5t-139 -125q51 -188 109 -385t124 -381 l-192 -65q-57 166 -110.5 338t-100.5 344q-137 -123 -271.5 -246t-275.5 -256z" />
<glyph unicode="Y" horiz-adv-x="1085" d="M59 -358q92 156 161 270.5t126 210.5l-33 -4q-16 162 -26.5 327.5t-22.5 344.5q-6 86 -12 173t-12.5 164.5t-11.5 140t-7 99.5l205 16q2 -37 7 -102t11.5 -144t11.5 -163t11 -158q6 -88 11 -155.5t8 -122t6.5 -96t5.5 -76.5q18 29 42.5 69.5t55.5 88.5t63.5 100.5 t65.5 103.5q41 66 83 129.5t89 134t101.5 150.5t121.5 178l168 -119q-55 -82 -114.5 -169t-111.5 -167t-95 -144.5t-68 -103.5q-88 -139 -184.5 -292.5t-186.5 -300t-166.5 -273.5t-125.5 -213z" />
<glyph unicode="Z" horiz-adv-x="1306" d="M-225 115q98 70 185 141.5t174 146t176 152.5t192 162q72 59 147.5 122.5t151.5 128t147.5 127t134.5 117.5q-160 -10 -309 -21t-297 -15l-4 204q242 10 461 28.5t440 29.5l74 -181q-100 -88 -220 -190t-234.5 -200.5t-212 -181.5t-152.5 -130q-72 -61 -144.5 -123.5 t-138 -119t-121 -102.5t-92.5 -77q90 0 197.5 3t214 6t201 6.5t159.5 3.5v-205q-31 1 -65 1q-69 0 -154 -3q-127 -4 -269.5 -9.5t-292.5 -7.5q-50 -1 -100 -1q-98 0 -190 3z" />
<glyph unicode="[" horiz-adv-x="606" d="M0 -248l473 1850l361 -3l-41 -182h-170l-385 -1476h174l-45 -189h-367z" />
<glyph unicode="\" horiz-adv-x="991" d="M98 1608l199 45q25 -78 57.5 -185.5t67.5 -225.5t68.5 -233.5t62.5 -209.5q90 -309 156.5 -530.5t107.5 -379.5l-201 -47q-31 119 -67.5 249t-73.5 254t-69.5 234.5t-57.5 190.5q-37 125 -70.5 245t-64.5 227.5t-59.5 200.5t-55.5 165z" />
<glyph unicode="]" horiz-adv-x="606" d="M-10 -248l41 182h170l385 1477h-174l45 188h366l-473 -1849z" />
<glyph unicode="^" d="M524 1290q117 59 205 107.5t174 93.5l88 -18q33 -43 73 -103.5t99 -142.5l-110 -78l-142 194l-336 -172z" />
<glyph unicode="_" horiz-adv-x="1040" d="M0 -256h1040v-61h-1040v61z" />
<glyph unicode="`" d="M354 1497l107 117l311 -340l-98 -96z" />
<glyph unicode="a" d="M-92 201q0 119 70.5 259t224.5 294q72 72 155.5 135t173 113.5t179.5 83t172 40.5l8 -88l135 -59q-25 -68 -62.5 -154t-84.5 -172q-59 -137 -128 -318t-143 -396l-182 61l66 203q-113 -152 -205 -210.5t-170 -58.5q-102 0 -155.5 77t-53.5 190zM111 197q0 -23 5 -36.5 t27 -13.5q31 0 63 20.5t60.5 49.5t54 59t41.5 48q94 102 161 176.5t116 150.5q12 18 24.5 37t22.5 37q18 45 36.5 85t35.5 77q-100 -39 -208 -112t-204 -169q-129 -129 -182 -234.5t-53 -174.5z" />
<glyph unicode="b" horiz-adv-x="1073" d="M-133 51q82 170 137 287t94 200t69 141t58 114q94 178 180.5 361t172.5 374l188 -82q-29 -66 -97.5 -212.5t-166.5 -348.5q51 45 94 78.5t83 55t79 32t82 10.5q55 0 95 -20.5t66.5 -54.5t39 -78t12.5 -91q0 -55 -16.5 -120.5t-52.5 -138.5t-95.5 -149.5t-145.5 -154.5 q-160 -143 -330.5 -224t-312.5 -81q-20 0 -36.5 1t-45.5 7l7 25zM145 156q96 12 214 73.5t245 176.5q123 111 183.5 220t60.5 191q0 23 -5 31t-9 8q-20 0 -54.5 -16.5t-73 -41t-75.5 -52t-64 -52.5q-57 -49 -116.5 -116.5t-124.5 -153.5q-111 -145 -181 -268z" />
<glyph unicode="c" horiz-adv-x="765" d="M-74 223q0 51 13.5 115.5t40 135.5t64.5 144.5t87 147.5q111 166 232.5 258t257.5 92q117 0 177 -67.5t60 -184.5q0 -41 -22 -119l-197 58q10 29 11 46t1 34q0 23 -7 25.5t-23 2.5q-66 0 -146 -59t-172 -201q-53 -82 -87 -148.5t-52.5 -120.5t-25.5 -93t-7 -66 q0 -45 24.5 -74.5t53.5 -29.5q31 0 77 27.5t107 99.5l156 -131q-172 -201 -340 -201q-63 0 -115.5 25.5t-89.5 68.5t-57.5 98.5t-20.5 116.5z" />
<glyph unicode="d" horiz-adv-x="927" d="M-94 166q0 123 72.5 267.5t201.5 291.5q68 76 142.5 144.5t152.5 121.5t157 89t154 48q8 23 24.5 63t35 86t36 90t29.5 75l193 -72q-29 -84 -54.5 -154.5t-49 -132t-46 -115t-45.5 -102.5q-29 -61 -47 -106t-33.5 -82t-30 -73t-32.5 -81q-31 -78 -65.5 -166t-68.5 -176 t-64.5 -172t-55.5 -153l-178 69l49 158q-27 -39 -61.5 -70.5t-73.5 -54t-81 -34t-81 -11.5q-80 2 -130 71.5t-50 180.5zM111 166q0 -29 4 -36t8 -7q25 0 61.5 20.5t83.5 68.5t106.5 127t131.5 196q70 115 116 206t66 140q-86 -45 -176 -121t-176 -170q-117 -129 -171 -240.5 t-54 -183.5z" />
<glyph unicode="e" horiz-adv-x="784" d="M-76 244q0 106 35 209.5t95.5 201t140 185.5t172.5 166q88 74 156.5 101.5t125.5 27.5q53 0 93 -18.5t67 -50.5t40 -73t13 -84q0 -104 -62.5 -203.5t-178.5 -185.5q-55 -39 -118 -68.5t-126.5 -50t-125 -34t-112.5 -21.5q-4 -25 -7 -49.5t-3 -52.5q0 -66 19.5 -97.5 t52.5 -31.5q27 0 69.5 19.5t108.5 84.5l143 -143q-92 -92 -173 -129t-148 -37q-121 0 -199 90t-78 244zM250 580q68 16 131 41.5t121 66.5q82 59 118.5 118.5t36.5 102.5q0 6 -1 13.5t-7 7.5q-20 0 -54 -13.5t-97 -66.5q-148 -123 -248 -270z" />
<glyph unicode="f" horiz-adv-x="774" d="M-178 -434q76 223 149.5 418.5t135 347t104.5 252t59 137.5q-35 -6 -62.5 -10t-55.5 -9l-41 201q39 6 72.5 11.5t64.5 9.5t62.5 9t66.5 9q27 51 52.5 99.5t49.5 91.5q98 176 197.5 264t197.5 88q43 0 85 -17.5t76 -57.5t56.5 -103.5t26.5 -155.5l-205 -8q-4 74 -17 104.5 t-24 30.5q-12 0 -30.5 -11.5t-45 -39t-62.5 -75.5t-79 -122q-10 -18 -17 -30.5t-17 -28.5q35 4 65.5 8t69.5 8l24 -205q-70 -8 -130 -17t-138 -13q-106 -221 -233 -533.5t-265 -718.5z" />
<glyph unicode="g" horiz-adv-x="927" d="M-82 176q0 147 68.5 282.5t203.5 266.5q113 111 275 210t340 169l47 -123l115 -57q-61 -119 -104.5 -210t-79 -175t-66.5 -169t-68 -192q-20 -59 -42.5 -119.5t-44 -116t-40 -103.5t-33.5 -81q-25 -59 -68.5 -122.5t-99 -115.5t-120 -85t-131.5 -33q-49 0 -80 4t-60 12 l58 197q14 -4 23 -6t34 -2q74 0 144.5 65.5t134.5 218.5q8 23 21 54.5t26.5 63.5t26 63t18.5 49q-68 -86 -143.5 -137.5t-161.5 -51.5t-139.5 57.5t-53.5 186.5zM125 203q0 -25 3 -41q3 -15 13 -15h2q27 2 54.5 17.5t60.5 44.5t72 75t90 109q80 100 146.5 206.5t127.5 225.5 q-221 -113 -360 -247q-66 -63 -107 -122t-63.5 -108t-30.5 -86t-8 -59z" />
<glyph unicode="h" horiz-adv-x="919" d="M-129 84q33 92 78 204.5t94 232.5t102.5 242t102.5 232q27 61 58.5 129t61 134.5t57.5 127t46 105.5l188 -82q-31 -70 -53 -121t-42.5 -96t-41 -91t-47.5 -106q-27 -59 -64.5 -142t-72.5 -163q92 96 161.5 169t125.5 126q61 57 103 88t89 35q27 4 53.5 -9.5t44.5 -35.5 q23 -29 29 -69q1 -9 1 -17q0 -33 -17 -70q-31 -66 -54.5 -120t-44 -105t-41 -103.5t-43.5 -113.5q-31 -80 -56 -156t-45.5 -138t-34 -109.5t-17.5 -67.5l-201 45q6 25 20.5 76t36 118.5t48 146.5t57.5 159q14 37 25.5 64.5t23.5 53t26.5 53t35.5 66.5l-5 2 q-102 -111 -183 -194.5t-140 -149.5q-98 -111 -165 -216t-108 -204z" />
<glyph unicode="i" horiz-adv-x="399" d="M-113 94q14 49 39 119t55.5 150.5t66.5 170t72 175.5t70.5 164.5t65.5 142.5l184 -90q-49 -98 -102 -222t-102.5 -248t-90.5 -234.5t-61 -184.5zM350 1241l58 127l184 -86l-57 -127z" />
<glyph unicode="j" horiz-adv-x="378" d="M-670 -520l111 172q43 -29 83 -39q16 -4 32 -4q23 0 46 9q38 15 74.5 61.5t75.5 130.5q74 162 143.5 323.5t133 315t122 294t111.5 261.5l189 -82q-37 -86 -82 -195t-93.5 -224.5t-97.5 -233t-94 -222t-83 -191.5t-64 -141q-57 -117 -128 -188.5t-150 -100.5 q-54 -19 -110 -19q-26 0 -53 5q-84 13 -166 68zM344 1219l66 151l188 -82l-66 -151z" />
<glyph unicode="k" horiz-adv-x="847" d="M-152 94q92 180 184.5 383t180.5 402q68 154 141.5 311.5t151.5 320.5l184 -90q-53 -115 -105.5 -225.5t-113.5 -247.5q76 41 161 87t167 91l98 -180q-35 -18 -90 -49t-122 -65.5t-136.5 -72.5t-130.5 -69q12 -49 33.5 -115.5t50 -140.5t61.5 -151.5t68 -148.5t68.5 -130 t62.5 -98l-164 -123q-47 61 -93 146t-89 179.5t-83 193.5t-71 192q-35 -80 -64.5 -144.5t-56 -122t-54.5 -113t-58 -118.5z" />
<glyph unicode="l" horiz-adv-x="428" d="M-106 37q6 33 22 85t45 133t73 194.5t109 271.5q37 88 73 175t76 177t84 187.5t97 207.5l184 -86q-41 -84 -89 -192.5t-95 -215t-85 -196.5t-56 -135q-66 -158 -109 -266.5t-68.5 -183t-40 -120.5t-20.5 -77z" />
<glyph unicode="m" horiz-adv-x="1460" d="M-141 39q12 55 40.5 132t82.5 161q31 72 69.5 163t80.5 189t83 194.5t76 178.5l188 -82q-29 -68 -54.5 -125t-41.5 -96q78 78 158 138t164 112q64 38 123 38h3q45 0 76 -22q35 -24 35 -69q0 -51 -82 -197q47 41 90 73.5t85 61.5t86 56.5t91 58.5q56 36 101 36h2 q20 0 42.5 -7t41 -19.5t31 -31.5t12.5 -44q0 -27 -9.5 -51.5t-19.5 -38.5q-25 -37 -58.5 -107.5t-71.5 -157.5t-76 -182.5t-71.5 -183.5t-59 -158.5t-36.5 -109.5l-196 53q51 174 129 358.5t147 356.5l-4 2q-84 -63 -149.5 -116.5t-119.5 -106t-99.5 -108.5t-85.5 -124 q-29 -72 -53.5 -137.5t-45.5 -120.5l-196 55q31 145 98 267q6 14 23.5 58t41 100.5t50 119t49.5 115.5l-2 2q-96 -82 -167 -147.5t-126 -124t-97 -114.5t-81 -118q-20 -49 -44 -105.5t-59 -138.5z" />
<glyph unicode="n" horiz-adv-x="901" d="M-121 76q25 66 49.5 130t46.5 122q12 31 34 84t48.5 114.5t52 123t44.5 108.5q14 37 30.5 78t30.5 80.5t26.5 73.5t18.5 59l201 -50q-2 -12 -9.5 -32.5t-16.5 -45t-19 -50t-19 -50.5q41 41 79 75t78 64.5t83 60.5t94 64q57 37 105 39h6q43 0 69 -24q33 -29 41 -73 q2 -12 3 -24q0 -34 -17 -71q-25 -55 -54.5 -127t-61 -152t-64.5 -162.5t-62 -158.5q-20 -53 -38.5 -106.5t-35 -101.5t-29.5 -88t-20 -65l-196 58q12 43 27.5 92t33 99t33.5 97.5t33 88.5q8 25 25.5 66.5t39 97t48 121t57.5 134.5l-2 2q-88 -84 -170 -154.5t-152 -148.5 t-121 -166t-96 -192q-16 -37 -31.5 -76t-27.5 -80z" />
<glyph unicode="o" horiz-adv-x="792" d="M-70 215q0 72 21.5 160t55.5 177t75 171t82 143q39 57 84 109.5t94 91.5t102.5 61.5t108.5 22.5q37 0 77 -13.5t74.5 -45t57 -87t22.5 -139.5q0 -72 -18 -154.5t-51 -168.5t-75 -170t-87 -158q-190 -303 -379 -303q-59 0 -104 23.5t-76 65.5t-47.5 97.5t-16.5 116.5z M135 215q0 -59 14.5 -78.5t24.5 -19.5q12 0 30.5 9t44 31.5t58.5 63.5t74 105q39 61 75 133.5t63.5 145.5t44 141.5t16.5 119.5q0 49 -9.5 64.5t-17.5 15.5q-39 0 -94.5 -45t-122.5 -149q-41 -61 -77 -132t-63.5 -142.5t-44 -139.5t-16.5 -123z" />
<glyph unicode="p" horiz-adv-x="919" d="M-338 -442q72 180 125 307t92 219q18 45 49 117.5t64 151.5t63.5 154t53.5 126q57 135 105 262t89 244l195 -45q-4 -12 -10.5 -32t-12.5 -40.5t-13 -39.5t-11 -32q53 59 119.5 100.5t144.5 41.5q55 0 97 -19.5t68.5 -52.5t40 -76t13.5 -88q0 -55 -25.5 -127t-68.5 -148.5 t-99.5 -152.5t-117.5 -139q-123 -125 -262.5 -219.5t-319.5 -122.5q-55 -139 -99 -247t-89 -218zM154 190q90 43 173 110t148 132q55 57 101.5 119.5t80 120t53 105.5t19.5 79q0 23 -2 27t-8 4q-14 0 -50 -12.5t-83 -59.5q-53 -51 -93 -92t-76 -86t-71 -99.5t-78 -129.5 q-29 -47 -57.5 -101.5t-56.5 -116.5z" />
<glyph unicode="q" horiz-adv-x="927" d="M-127 131v10q0 71 25 146q28 80 75 158.5t109.5 152.5t132.5 135q123 111 277.5 203t332.5 137l39 -143l92 -43q-53 -117 -94 -209t-76.5 -177t-69.5 -172t-71 -192q-37 -102 -65.5 -185t-53 -160t-46 -153.5t-46.5 -164.5l-196 53q16 72 40.5 153.5t51 162.5t54.5 159 t50 141q-98 -123 -192.5 -179t-171.5 -56q-39 0 -75 15.5t-62.5 44t-43 69.5t-16.5 94zM78 139q0 -10 2 -15t14 -5q51 0 132 74.5t192 205.5l133 161t88 128q16 31 29.5 58.5t31.5 68.5q-96 -43 -181 -102.5t-165 -130.5q-61 -55 -112.5 -114.5t-87 -118t-56 -112 t-20.5 -98.5z" />
<glyph unicode="r" horiz-adv-x="612" d="M-119 61q43 111 92.5 234t112.5 283q25 63 54.5 138t62.5 152.5t64.5 155.5t60.5 145l198 -51q-10 -27 -23.5 -59.5t-29.5 -71.5q18 23 45 47.5t57.5 47t62.5 43t58 36.5l107 -176q-78 -47 -158 -107.5t-148.5 -124t-123 -122t-78.5 -99.5q-20 -47 -47 -111.5t-55.5 -137 t-60.5 -149.5t-62 -150z" />
<glyph unicode="s" horiz-adv-x="983" d="M-190 174q0 106 93 196.5t285 145.5l58 -197q-70 -20 -115 -41.5t-70.5 -42t-36 -37t-10.5 -24.5q0 -18 30 -35.5t83 -17.5q45 0 103.5 13t117 32.5t110.5 44.5t89 47q72 45 94.5 81t22.5 67q0 41 -50 55q-37 12 -65.5 20t-55 14.5t-55 12.5t-67.5 14t-76 24.5t-66.5 43 t-47 62.5t-17.5 83q0 43 17.5 85t46 81t66.5 74t81 63q31 20 71.5 42t88 39.5t97.5 28.5t101 11q139 0 210 -69.5t71 -167.5q0 -41 -10.5 -81t-42.5 -100l-181 99q12 20 21.5 43.5t9.5 42.5q0 28 -74 28h-20q-47 -2 -102.5 -20.5t-122.5 -63.5q-66 -45 -92.5 -81.5 t-26.5 -47.5q0 -6 13 -10t30 -8q43 -8 116.5 -26.5t147.5 -43.5q80 -27 134 -91t54 -156q0 -86 -52 -169t-159 -151q-47 -29 -111.5 -59.5t-136 -55t-145.5 -40t-137 -15.5q-53 0 -109.5 15.5t-102.5 46t-75.5 79.5t-29.5 117z" />
<glyph unicode="t" horiz-adv-x="792" d="M-61 33q53 184 117.5 358t152.5 369q-23 -4 -50.5 -10.5t-52.5 -10.5l-30 203q20 2 51 7t63.5 10.5t62.5 9.5t50 8q20 45 38.5 82t36 70.5t36 68.5t41.5 76l180 -98q-16 -29 -36.5 -70t-49.5 -94q61 8 139 17t150 20l28 -205q-111 -14 -211 -26.5t-213 -29.5 q-45 -104 -91 -210.5t-97 -241.5q78 63 155.5 117.5t145.5 93.5l102 -176q-49 -27 -121.5 -77t-149.5 -110.5t-150.5 -126t-124.5 -123.5z" />
<glyph unicode="u" horiz-adv-x="882" d="M-135 92q0 25 15.5 70t40 100t54 117.5t58.5 124.5q43 88 87 178t85 169t72.5 139.5t50.5 90.5l180 -98q-37 -68 -72 -132.5t-69.5 -132t-71.5 -141t-78 -159.5q-18 -39 -39.5 -86t-50.5 -99l6 -2q35 27 86 64t103.5 75t98 74.5t68.5 65.5q29 31 62 94q14 27 43 82 t62.5 120.5t68.5 134.5t63 124l185 -90q-43 -88 -99.5 -203t-136.5 -260q-39 -70 -70.5 -136.5t-45.5 -94.5q-20 -43 -40 -89.5t-35.5 -88.5t-25.5 -77.5t-16 -60.5l-193 45q2 14 7.5 33.5t9.5 39t9 38t9 31.5q-68 -61 -123 -101.5t-98 -62t-74 -29.5t-49 -8q-59 0 -99 40 q-38 38 -38 95v6z" />
<glyph unicode="v" horiz-adv-x="811" d="M20 20q16 129 28.5 265.5t20 264.5t9.5 242v56q0 81 -4 145l205 13q4 -61 3.5 -142.5t-3.5 -170.5t-9 -178t-18 -167h4q68 92 146.5 192.5t157.5 194.5t150.5 175t125.5 137l147 -144q-43 -45 -108.5 -117.5t-140.5 -159.5t-153.5 -183.5t-149.5 -187.5t-130 -170 t-92 -132z" />
<glyph unicode="w" horiz-adv-x="1359" d="M0 90q14 82 28.5 201t29 248t25.5 258t19 235l205 -16q-14 -158 -27.5 -293t-29.5 -285h2q41 57 92 132t111.5 159t127 178t136.5 193l186 -72q-10 -74 -21.5 -164t-22.5 -178t-20.5 -167t-17.5 -128h2q31 47 88.5 124t125 165t141 179t139.5 165l156 -131 q-63 -74 -148.5 -179.5t-179.5 -228.5t-191.5 -258t-185.5 -270l-188 68q16 160 34.5 319.5t40.5 319.5h-4q-53 -78 -113.5 -164t-124 -171t-123 -165t-108.5 -148z" />
<glyph unicode="x" horiz-adv-x="837" d="M-201 57q66 78 178.5 191.5t260.5 251.5q-23 68 -46.5 140.5t-45 140t-37 122.5t-21.5 90l201 45q25 -94 54.5 -192t59.5 -191q100 92 207 187.5t215 191.5l136 -151q-139 -123 -253 -225.5t-233 -213.5q53 -160 100.5 -286.5t81.5 -204.5l-184 -86q-33 72 -77 185.5 t-87 236.5q-68 -66 -120 -116t-94 -92t-75.5 -80t-64.5 -75z" />
<glyph unicode="y" horiz-adv-x="837" d="M-236 -303q31 37 76 93t93.5 115.5t90.5 113t66 83.5l-57 7q23 256 40 483t38 436l204 -24q-12 -115 -20 -208.5t-14.5 -175t-11.5 -156.5t-11 -151q70 88 148.5 189.5t154.5 199t144.5 184.5t119.5 148l160 -127q-57 -72 -125.5 -160t-140.5 -179t-142.5 -179 t-127.5 -162q-117 -147 -253.5 -320t-271.5 -341z" />
<glyph unicode="z" horiz-adv-x="909" d="M-158 106q145 127 256 230.5t209 195.5q96 92 178 173t160 161q-55 -4 -111.5 -5t-108.5 -1t-95 1t-72 3l8 205q52 -3 135 -3q41 0 91 1q148 2 403 18l80 -174q-53 -55 -121 -123.5t-135.5 -136l-129 -129t-104.5 -100.5q-33 -31 -63.5 -60.5t-66.5 -64.5t-79 -76 t-100 -92q82 4 187.5 11t250.5 20l17 -205q-145 -12 -254 -19.5t-195 -10.5t-152.5 -3t-123.5 4z" />
<glyph unicode="{" horiz-adv-x="606" d="M127 -143.5q-10 65.5 6.5 177t63.5 281.5q33 119 52 197t21 126t-13 74.5t-52 45.5q49 18 79.5 47t54 78t47.5 126.5t58 196.5q47 164 87 247t79 117t81 36t97 4l5 -37q-39 -18 -65 -39t-45 -58.5t-39.5 -101t-49.5 -166.5q-31 -113 -54.5 -187.5t-49 -123.5t-58.5 -80.5 t-84 -56.5q35 -27 51.5 -57.5t15.5 -77.5t-18.5 -121t-50.5 -187q-41 -141 -64.5 -234t-30.5 -151.5t0 -91.5t30 -53l-13 -39q-59 -6 -95 18.5t-46 90z" />
<glyph unicode="|" horiz-adv-x="536" d="M258 -236v1838h119v-1838h-119z" />
<glyph unicode="}" horiz-adv-x="606" d="M-10 -213q35 27 59.5 50.5t47 68.5t49 126t67.5 222q31 113 54.5 187.5t49 123.5t58.5 80.5t84 56.5q-35 27 -51.5 58t-15.5 78t18.5 120.5t50.5 186.5q41 141 60.5 224t22.5 128t-7.5 60.5t-26.5 25.5l8 33q59 6 99 -3t54.5 -56.5t0 -143.5t-59.5 -266 q-33 -121 -52 -198t-21 -125t13 -74.5t52 -44.5q-49 -18 -79.5 -47t-54.5 -78.5t-47.5 -127t-57.5 -196.5q-47 -164 -90.5 -262t-86.5 -150.5t-89 -70t-101 -19.5z" />
<glyph unicode="~" d="M399 1319q66 72 107 114t100 50q31 4 53.5 1t40 -13.5t35 -29t39.5 -44.5q14 -16 33.5 -37t30.5 -23q12 -2 38.5 23.5t77.5 87.5l109 -90q-125 -156 -209 -168q-43 -6 -82 13.5t-84 76.5q-12 16 -28.5 33.5t-36.5 21.5q-12 2 -38 -23.5t-75 -84.5z" />
<glyph unicode="&#xa1;" horiz-adv-x="657" d="M-66 -307q68 135 133.5 281.5t126 289t112.5 274.5t91 240l193 -69q-59 -154 -107.5 -279t-100.5 -250t-114.5 -262t-148.5 -315zM455 911l61 168l191 -65l-62 -170z" />
<glyph unicode="&#xa2;" horiz-adv-x="1054" d="M-92 432q0 117 62.5 234.5t185.5 222.5q98 82 188 134t184 83q27 59 54.5 121.5t62.5 134.5l184 -86q-16 -33 -32.5 -70t-34.5 -78q59 -4 100 -28.5t76 -55.5l-135 -153q-25 27 -44.5 33t-45.5 6h-18.5t-20.5 -2q-59 -135 -120.5 -283.5t-113.5 -279.5q29 12 60.5 33.5 t60.5 41.5l115 -168q-92 -61 -170 -95t-150 -46q-16 -53 -29.5 -96t-19.5 -72l-201 41q6 29 15.5 60.5t19.5 70.5q-57 8 -101 37t-72.5 70t-44 90t-15.5 100zM113 432q0 -37 18.5 -65.5t77.5 -38.5q14 43 37.5 102t51.5 126t55.5 134.5t52.5 128.5q-29 -20 -58 -41.5 t-57 -44.5q-94 -80 -136 -158.5t-42 -142.5z" />
<glyph unicode="&#xa3;" horiz-adv-x="1144" d="M-113 111q90 31 146.5 80t103.5 122q20 31 34.5 58.5t29 61.5t29 77t34.5 102h-47t-55 -2l-12 205q20 0 47.5 1t55.5 2t49.5 1h29.5q16 47 31.5 93t44.5 124q61 172 163.5 270.5t231.5 98.5q74 0 124 -33t83 -86q33 -55 38 -98t5 -82h-205q0 53 -12.5 73.5t-32.5 20.5 q-43 0 -100.5 -55t-102.5 -178q-18 -51 -30.5 -85t-22.5 -63q35 0 67.5 -1t77.5 -1v-205h-61.5t-50 1l-47 2t-52.5 1q-41 -131 -84 -246.5t-123 -219.5q29 -4 79 -9.5t98 -15.5q66 -12 120 -22.5t109 -10.5q29 0 44 3t28 14l131 -160q-47 -39 -99.5 -50.5t-103.5 -11.5 q-63 0 -131 11.5t-139 25.5q-94 18 -158 22.5t-92 4.5q-45 0 -100.5 -7t-104.5 -26z" />
<glyph unicode="&#xa4;" horiz-adv-x="946" d="M94 14l84 90q-35 49 -52 93.5t-20 105.5q-2 76 15.5 129t64.5 113l-92 92l45 49l97 -92q51 43 103 64.5t122 21.5q63 0 109 -16.5t98 -53.5l86 84l49 -49l-86 -86q49 -55 69.5 -110.5t20.5 -133.5q0 -63 -17.5 -110t-52.5 -99l80 -79l-51 -50l-76 76 q-53 -47 -105.5 -68.5t-123.5 -21.5q-74 0 -128 20.5t-110 69.5l-82 -80zM176 303q2 -57 24.5 -106.5t61.5 -86t89 -58t108 -21.5q57 0 107 22.5t88 60.5t59.5 89t23.5 108t-19.5 110.5t-59 93.5t-90 63.5t-109.5 23.5q-59 0 -112.5 -24.5t-91.5 -65.5t-59.5 -95.5 t-19.5 -113.5z" />
<glyph unicode="&#xa5;" horiz-adv-x="1085" d="M-111 272l437 82l94 156l-395 -74l-25 174l420 78l-363 680l158 86l367 -680q35 53 59.5 91t47 73t48 73t60.5 93q39 59 67.5 100t55 81t57.5 86t78 118l149 -107q-41 -59 -66.5 -96t-48 -69.5t-47 -69.5t-63.5 -96q-31 -49 -53.5 -83t-43 -65t-41 -64.5t-50.5 -80.5 l260 47l28 -174l-420 -78l-90 -154l357 68l26 -176l-508 -92l-186 -312l-158 90l105 177l-291 -56z" />
<glyph unicode="&#xa7;" horiz-adv-x="880" d="M121 440q0 72 40 132.5t105 95.5q-31 29 -44 60.5t-13 64.5q0 43 20.5 84t51 72.5t69.5 52t76 20.5q80 0 134 -22.5t88 -60.5t49.5 -86t15.5 -97h-101q0 72 -46 121t-105 49q-18 0 -41 -8.5t-43.5 -23.5t-33.5 -37.5t-13 -53.5q0 -41 38 -85t134 -91q53 -27 102 -63 t86 -78t59.5 -88t22.5 -95q0 -57 -36 -113.5t-120 -107.5q35 -35 50.5 -73t15.5 -77q0 -43 -18.5 -84t-50 -71.5t-73.5 -49t-89 -18.5q-135 0 -211 70.5t-76 187.5h112q0 -80 41 -121t119 -41q23 0 46.5 8.5t43 24t31.5 37t12 45.5q0 51 -58 118.5t-208 145.5 q-92 49 -137 119t-45 137zM240 442q0 -33 14 -63.5t43 -52.5q72 -55 136.5 -97.5t113.5 -70.5q43 20 74.5 55t31.5 82q0 58 -55 115q-57 59 -116.5 97t-145.5 85q-49 -29 -72.5 -69t-23.5 -81z" />
<glyph unicode="&#xa8;" d="M397 1319l78 127l152 -98l-80 -127zM743 1319l80 127l150 -98l-78 -127z" />
<glyph unicode="&#xa9;" horiz-adv-x="1490" d="M213 479q0 111 42 211.5t113.5 176t168 119.5t206.5 44q106 0 200.5 -43t164.5 -116.5t109.5 -171t39.5 -205.5q0 -106 -39.5 -200.5t-109.5 -166.5t-164.5 -114t-200.5 -44q-109 -2 -206 40t-168.5 113t-113.5 163t-42 194zM258 473q0 -86 38 -170t103.5 -149.5 t152.5 -105.5t185 -40q102 0 190.5 39t153 105.5t101.5 154.5t37 189q0 100 -36 189t-99.5 156.5t-149.5 107.5t-186 42q-102 2 -191.5 -39t-155 -111.5t-104.5 -166t-39 -201.5zM453 483q0 74 32 146q41 88 115 127t152 39q63 0 120 -23q23 -8 35 -8q33 0 37 24h21l14 -184 q-2 -2 -6 -2h-15q-18 68 -74.5 116t-125.5 48q-31 0 -59.5 -10.5t-63.5 -38.5q-41 -35 -63.5 -97.5t-22.5 -134.5q0 -41 10 -88q14 -72 68.5 -118t130.5 -46q96 0 194 78q8 4 11 4q10 0 10 -12q0 -10 -10 -16q-59 -49 -119 -71.5t-115 -22.5q-59 0 -109.5 22.5t-87 62 t-58 92t-21.5 113.5z" />
<glyph unicode="&#xaa;" horiz-adv-x="894" d="M164 516v82h678v-82h-678zM295 762q0 53 31.5 115.5t101.5 132.5q66 66 148.5 112.5t156.5 55.5l4 -39l62 -27q-10 -31 -27.5 -69.5t-40.5 -77.5q-27 -61 -56.5 -141.5t-58.5 -164.5l-81 29l20 70q-49 -70 -90 -93.5t-76 -23.5q-47 0 -70.5 35t-23.5 86zM381 760 q0 -23 14 -23q10 0 24.5 9.5t28 22.5t27 26.5l21.5 21.5q23 23 40 41.5t30.5 34.5t25.5 33.5t26 38.5q4 8 10.5 15t10.5 17q10 20 17.5 38t15.5 34q-45 -16 -94.5 -49t-92.5 -76q-59 -59 -81.5 -106t-22.5 -78z" />
<glyph unicode="&#xab;" horiz-adv-x="937" d="M-100 571l28 138q74 51 127.5 90t95.5 70.5t75.5 59t66.5 58.5l139 -151q-53 -51 -130 -108.5t-175 -129.5q29 -53 81 -129t103 -156l-180 -94q-55 78 -116.5 173t-114.5 179zM317 555l29 137q72 49 127 90t98 74t77 61.5t65 53.5l135 -152q-70 -61 -139.5 -116.5 t-165.5 -122.5q39 -55 88 -130t96 -149l-176 -102q-55 84 -117.5 177t-116.5 179z" />
<glyph unicode="&#xac;" horiz-adv-x="1015" d="M57 231v74h777v-305h-68v231h-709z" />
<glyph unicode="&#xad;" horiz-adv-x="634" d="M96 741l414 9l4 -185l-414 -8z" />
<glyph unicode="&#xae;" horiz-adv-x="1511" d="M229 463q-6 113 34 216t113 181t173 124t213 44q109 -2 203 -46t162.5 -117.5t107.5 -171t39 -206.5t-40 -203t-109.5 -164.5t-163 -111.5t-199.5 -43q-109 -2 -202 36t-164.5 104.5t-115.5 158.5t-51 199zM276 467q4 -98 44 -183t106 -147.5t153 -98.5t185 -36t184 40 t149.5 106.5t100.5 154.5t37 186q0 100 -36 189.5t-99.5 157t-149.5 108.5t-186 41q-104 0 -194.5 -42t-157 -112.5t-103.5 -165t-33 -198.5zM512 233q-4 6 4 11q12 2 27.5 6t19.5 8q6 6 16.5 33.5t10.5 93.5v377q0 18 -19 29q-10 6 -20 7t-23 3q-8 4 -4 12q0 4 4 8h246 q43 0 83 -7t72 -24.5t51 -45t24 -68.5q4 -63 -41 -106.5t-109 -53.5q45 -76 77 -125t52.5 -77.5t31.5 -42t17 -17.5q8 -6 15.5 -7t15.5 -3v-17h-127l-188 281h-56v-158q0 -49 4 -68.5t17 -27.5q14 -10 35 -10q2 -2 2 -11q0 -4 -2 -6h-232q-4 2 -4 6zM692 543h94 q55 0 91 37.5t28 93.5q-8 51 -34.5 80.5t-73.5 33.5q-59 4 -80 -4t-25 -28v-213z" />
<glyph unicode="&#xb0;" horiz-adv-x="874" d="M211 725q-2 49 15.5 94t49 79t74.5 53.5t92 19.5q47 0 87 -19.5t70 -52.5t47.5 -75t17.5 -87q0 -47 -17.5 -89t-47.5 -72.5t-70 -50t-87 -19.5t-88 16.5t-71.5 46t-50 69.5t-21.5 87zM258 729q4 -72 55.5 -123t124.5 -51q37 0 69 14.5t55.5 39t37.5 56t14 68.5t-13 72 t-37.5 60.5t-56.5 41t-69 15.5q-39 0 -72.5 -15.5t-58 -42t-38 -61.5t-11.5 -74z" />
<glyph unicode="&#xb1;" horiz-adv-x="829" d="M123 72v67h567v-67h-567zM123 475v68h246v264h73v-264h248v-68h-248v-256h-73v256h-246z" />
<glyph unicode="&#xb4;" d="M535 1251l358 289l88 -133l-365 -266z" />
<glyph unicode="&#xb5;" horiz-adv-x="1146" d="M123 -307q0 27 7 62.5t14.5 74.5t14.5 81t7 85v825h125v-508q0 -47 8 -91t28.5 -77.5t52.5 -54t81 -20.5q59 0 109.5 32.5t88.5 85.5v629h140v-667q0 -41 24.5 -73t50.5 -32q35 0 67 21.5t46 76.5q4 -4 9 -4h10q-14 -78 -66.5 -127t-120.5 -49q-18 0 -42.5 5t-47 22.5 t-41 51.5t-24.5 89q-86 -98 -150.5 -130t-114.5 -32q-55 0 -103 25.5t-79 60.5q0 -51 8 -100t18.5 -94t18.5 -85t8 -71q0 -37 -16 -60.5t-59 -23.5t-57.5 19.5t-14.5 52.5z" />
<glyph unicode="&#xb6;" horiz-adv-x="925" d="M154 696q2 63 27.5 120.5t67.5 102t95 71t109 26.5h358v-72h-72v-1184h-71v1184h-148v-1180h-71v594q-61 4 -115.5 26t-94.5 63.5t-63.5 103t-21.5 145.5z" />
<glyph unicode="&#xb7;" horiz-adv-x="397" d="M43 586l90 147l176 -106l-90 -148z" />
<glyph unicode="&#xb8;" horiz-adv-x="1009" d="M35 -258q33 55 61.5 107.5t50.5 91.5q47 84 91 161l106 -61q-8 -16 -20.5 -38.5t-25.5 -45.5t-25.5 -44.5t-18.5 -33.5q-16 -31 -47 -85t-66 -113z" />
<glyph unicode="&#xba;" horiz-adv-x="817" d="M164 516v82h584v-82h-584zM330 780q0 33 9 72t24.5 79t35 76.5t37.5 65.5q35 53 79 90t95 37q16 0 35 -6t34 -20.5t25.5 -39t10.5 -61.5q0 -66 -32 -146.5t-73 -146.5q-88 -137 -170 -137q-53 0 -81.5 40t-28.5 97zM422 780q0 -29 7 -37t11 -8q10 0 34 18.5t58 75.5 q18 27 35 61t29 66.5t19.5 63t7.5 53.5t-4.5 29t-8.5 6q-16 0 -40.5 -19.5t-55.5 -66.5q-37 -55 -64.5 -124t-27.5 -118z" />
<glyph unicode="&#xbb;" horiz-adv-x="937" d="M-74 362q41 35 71 61t50 42q35 29 76 59.5t106 77.5q-16 25 -33.5 52.5t-41.5 62.5q-20 29 -34 48t-24 35.5t-21.5 34t-27.5 42.5l172 110q16 -25 26.5 -42t22 -32.5t23.5 -35t31 -46.5q25 -35 60.5 -88t72.5 -118l-29 -136q-137 -96 -221 -161.5t-144 -116.5zM344 348 q41 37 119 98.5t184 139.5q-16 27 -37.5 57.5t-50.5 73.5q-41 59 -62.5 92t-33.5 53l176 107q10 -16 18.5 -28.5t17.5 -27t22.5 -34t33.5 -48.5q35 -53 69 -104t72 -119l-28 -135q-80 -57 -133.5 -96t-92 -68.5t-70.5 -56.5t-69 -59z" />
<glyph unicode="&#xbf;" horiz-adv-x="972" d="M-72 -201q0 92 34 162t75 129q29 43 56.5 78t64.5 74t86 88t123 121q78 76 121.5 120.5t68.5 73.5t37 49.5t31 48.5l176 -102q-23 -35 -41.5 -62.5t-47 -63.5t-75.5 -85t-127 -127q-70 -68 -118 -118t-84 -87t-59.5 -66.5t-43.5 -56.5q-27 -37 -49.5 -85t-22.5 -91 q0 -41 17.5 -62.5t42.5 -21.5q53 0 153 60.5t223 185.5l148 -143q-80 -82 -152.5 -139.5t-124.5 -86.5q-66 -39 -129 -60t-118 -21q-61 0 -110.5 24.5t-83.5 65.5t-52.5 92t-18.5 106zM659 891l93 160l180 -99l-92 -161z" />
<glyph unicode="&#xc0;" horiz-adv-x="1468" d="M-168 98q59 55 123.5 121t134.5 137h-135v205h95t79 1t75 2t83 1q176 193 364.5 415t382.5 464l183 -70q-8 -121 -14.5 -224t-11.5 -195.5t-10 -179.5t-12 -175h109v-199q-29 -2 -57.5 -2t-59.5 -4q-4 -72 -5 -128t-1 -101t1 -80t3 -66l-205 -8q-4 94 -2 194.5t2 178.5 q-174 -8 -315 -13t-264 -10q-61 -68 -110.5 -120t-95.5 -98t-93 -92t-105 -101zM567 573q98 4 205 8.5t193 8.5q6 100 12 216t16 263q-37 -43 -87 -103.5t-106.5 -126t-116 -135.5t-116.5 -131zM684 1655l100 98l220 -244l-82 -82z" />
<glyph unicode="&#xc1;" horiz-adv-x="1468" d="M-168 98q59 55 123.5 121t134.5 137h-135v205h95t79 1t75 2t83 1q176 193 364.5 415t382.5 464l183 -70q-8 -121 -14.5 -224t-11.5 -195.5t-10 -179.5t-12 -175h109v-199q-29 -2 -57.5 -2t-59.5 -4q-4 -72 -5 -128t-1 -101t1 -80t3 -66l-205 -8q-4 94 -2 194.5t2 178.5 q-174 -8 -315 -13t-264 -10q-61 -68 -110.5 -120t-95.5 -98t-93 -92t-105 -101zM567 573q98 4 205 8.5t193 8.5q6 100 12 216t16 263q-37 -43 -87 -103.5t-106.5 -126t-116 -135.5t-116.5 -131zM948 1720l359 289l88 -133l-365 -266z" />
<glyph unicode="&#xc2;" horiz-adv-x="1468" d="M-168 98q59 55 123.5 121t134.5 137h-135v205h95t79 1t75 2t83 1q176 193 364.5 415t382.5 464l183 -70q-8 -121 -14.5 -224t-11.5 -195.5t-10 -179.5t-12 -175h109v-199q-29 -2 -57.5 -2t-59.5 -4q-4 -72 -5 -128t-1 -101t1 -80t3 -66l-205 -8q-4 94 -2 194.5t2 178.5 q-174 -8 -315 -13t-264 -10q-61 -68 -110.5 -120t-95.5 -98t-93 -92t-105 -101zM567 573q98 4 205 8.5t193 8.5q6 100 12 216t16 263q-37 -43 -87 -103.5t-106.5 -126t-116 -135.5t-116.5 -131zM852 1698q117 59 205 107t174 93l88 -18q33 -43 73 -103.5t99 -142.5l-111 -78 l-141 195l-336 -172z" />
<glyph unicode="&#xc3;" horiz-adv-x="1468" d="M-168 98q59 55 123.5 121t134.5 137h-135v205h95t79 1t75 2t83 1q176 193 364.5 415t382.5 464l183 -70q-8 -121 -14.5 -224t-11.5 -195.5t-10 -179.5t-12 -175h109v-199q-29 -2 -57.5 -2t-59.5 -4q-4 -72 -5 -128t-1 -101t1 -80t3 -66l-205 -8q-4 94 -2 194.5t2 178.5 q-174 -8 -315 -13t-264 -10q-61 -68 -110.5 -120t-95.5 -98t-93 -92t-105 -101zM567 573q98 4 205 8.5t193 8.5q6 100 12 216t16 263q-37 -43 -87 -103.5t-106.5 -126t-116 -135.5t-116.5 -131zM813 1642q66 72 107 114t100 50q31 4 53.5 1t39.5 -13t34.5 -28.5t40.5 -45.5 q14 -16 33.5 -36.5t29.5 -22.5q12 -2 39 23.5t78 87.5l109 -91q-125 -156 -209 -168q-43 -6 -82 13.5t-84 77.5q-12 16 -28.5 33.5t-37.5 21.5q-12 2 -37.5 -23.5t-74.5 -85.5z" />
<glyph unicode="&#xc4;" horiz-adv-x="1468" d="M-168 98q59 55 123.5 121t134.5 137h-135v205h95t79 1t75 2t83 1q176 193 364.5 415t382.5 464l183 -70q-8 -121 -14.5 -224t-11.5 -195.5t-10 -179.5t-12 -175h109v-199q-29 -2 -57.5 -2t-59.5 -4q-4 -72 -5 -128t-1 -101t1 -80t3 -66l-205 -8q-4 94 -2 194.5t2 178.5 q-174 -8 -315 -13t-264 -10q-61 -68 -110.5 -120t-95.5 -98t-93 -92t-105 -101zM567 573q98 4 205 8.5t193 8.5q6 100 12 216t16 263q-37 -43 -87 -103.5t-106.5 -126t-116 -135.5t-116.5 -131zM897 1647l78 127l151 -99l-79 -127zM1243 1647l80 127l150 -99l-78 -127z" />
<glyph unicode="&#xc5;" horiz-adv-x="1468" d="M-168 98q59 55 123.5 121t134.5 137h-135v205h95t79 1t75 2t83 1q176 193 364.5 415t382.5 464l183 -70q-8 -121 -14.5 -224t-11.5 -195.5t-10 -179.5t-12 -175h109v-199q-29 -2 -57.5 -2t-59.5 -4q-4 -72 -5 -128t-1 -101t1 -80t3 -66l-205 -8q-4 94 -2 194.5t2 178.5 q-174 -8 -315 -13t-264 -10q-61 -68 -110.5 -120t-95.5 -98t-93 -92t-105 -101zM567 573q98 4 205 8.5t193 8.5q6 100 12 216t16 263q-37 -43 -87 -103.5t-106.5 -126t-116 -135.5t-116.5 -131zM940 1716q0 37 13.5 72t39 63.5t62.5 46t84 17.5q37 0 71.5 -13.5t63.5 -39 t46 -62.5t17 -84q0 -37 -13 -71.5t-38.5 -63.5t-62.5 -46t-84 -17q-37 0 -72 13t-63.5 38.5t-46 62.5t-17.5 84zM1014 1716q0 -59 39 -92t86 -33q59 0 92 39t33 86q0 59 -39 92t-86 33q-59 0 -92 -39t-33 -86z" />
<glyph unicode="&#xc6;" horiz-adv-x="2099" d="M-186 104q66 51 142.5 116t162.5 136q-23 -2 -47.5 -1t-55.5 1v205q29 0 70 1t88 2t96 2t92 1q86 76 201 181.5t243 225.5t260 246t251 242l41 -41q82 2 176 4t189.5 5.5t184.5 6.5t163 5l8 -205q-61 -2 -136 -5t-157 -5t-169 -5t-171 -5l-86 -299q51 2 100 4t101.5 4 t110 3t126.5 5l8 -205q-106 -4 -237 -10t-271 -10l-168 -580q70 4 134.5 6t135 5t154.5 6.5t193 9.5l4 -205q-115 -4 -226.5 -8t-226 -9.5t-235.5 -11.5t-252 -12l-6 203q16 0 47 2t61 4l78 268q-51 -2 -116.5 -5t-138 -6t-148.5 -6t-148 -5q-147 -129 -276 -238t-223 -182z M680 580q92 6 194.5 8t178.5 6l131 453q-139 -135 -259 -243.5t-245 -223.5z" />
<glyph unicode="&#xc7;" horiz-adv-x="1009" d="M-29 350q0 94 29 196.5t81 205t126 201t162 184.5q174 174 349 259t316 85q31 0 50.5 -2t35 -5.5t29.5 -7.5t33 -10l-70 -192q-16 6 -30.5 9t-47.5 3q-45 0 -104.5 -16.5t-128 -51t-142 -88t-147.5 -127.5q-80 -78 -142.5 -161.5t-105.5 -166.5t-65.5 -164t-22.5 -151 q0 -111 45 -168t113 -57q47 0 128 41t173 147l156 -135q-117 -135 -238 -196.5t-219 -61.5q-102 0 -171 41t-112 103.5t-61.5 138.5t-18.5 147zM4 -309q41 72 77 136t64 114q31 53 59.5 103t53.5 97l133 -75q-10 -18 -26.5 -47t-33 -59t-30.5 -56.5t-22 -40.5 q-23 -39 -61 -107.5t-81 -140.5z" />
<glyph unicode="&#xc8;" horiz-adv-x="1126" d="M-127 115q16 0 42 1t60 3l285 663h-43l-4 205q29 0 67.5 1t67.5 1l103 236h-45l8 207q51 -4 106 -6.5t139 -2.5t209 2t316 9l8 -205q-184 -6 -309 -8t-211 -2l-97 -222q72 4 156 8.5t201 10.5l12 -205q-80 -4 -143.5 -7t-116.5 -6t-100 -5t-97 -5l-282 -657q68 2 144.5 5 t152.5 7t146.5 7.5t123.5 5.5l4 -205q-215 -10 -431 -19.5t-464 -21.5zM670 1876l106 117l311 -340l-98 -97z" />
<glyph unicode="&#xc9;" horiz-adv-x="1126" d="M-127 115q16 0 42 1t60 3l285 663h-43l-4 205q29 0 67.5 1t67.5 1l103 236h-45l8 207q51 -4 106 -6.5t139 -2.5t209 2t316 9l8 -205q-184 -6 -309 -8t-211 -2l-97 -222q72 4 156 8.5t201 10.5l12 -205q-80 -4 -143.5 -7t-116.5 -6t-100 -5t-97 -5l-282 -657q68 2 144.5 5 t152.5 7t146.5 7.5t123.5 5.5l4 -205q-215 -10 -431 -19.5t-464 -21.5zM766 1636l358 289l88 -133l-364 -266z" />
<glyph unicode="&#xca;" horiz-adv-x="1126" d="M-127 115q16 0 42 1t60 3l285 663h-43l-4 205q29 0 67.5 1t67.5 1l103 236h-45l8 207q51 -4 106 -6.5t139 -2.5t209 2t316 9l8 -205q-184 -6 -309 -8t-211 -2l-97 -222q72 4 156 8.5t201 10.5l12 -205q-80 -4 -143.5 -7t-116.5 -6t-100 -5t-97 -5l-282 -657q68 2 144.5 5 t152.5 7t146.5 7.5t123.5 5.5l4 -205q-215 -10 -431 -19.5t-464 -21.5zM592 1729q117 59 205 107t174 93l88 -18q33 -43 73 -103.5t99 -142.5l-111 -78l-141 195l-336 -172z" />
<glyph unicode="&#xcb;" horiz-adv-x="1126" d="M-127 115q16 0 42 1t60 3l285 663h-43l-4 205q29 0 67.5 1t67.5 1l103 236h-45l8 207q51 -4 106 -6.5t139 -2.5t209 2t316 9l8 -205q-184 -6 -309 -8t-211 -2l-97 -222q72 4 156 8.5t201 10.5l12 -205q-80 -4 -143.5 -7t-116.5 -6t-100 -5t-97 -5l-282 -657q68 2 144.5 5 t152.5 7t146.5 7.5t123.5 5.5l4 -205q-215 -10 -431 -19.5t-464 -21.5zM614 1733l78 127l152 -99l-80 -127zM961 1733l79 127l150 -99l-78 -127z" />
<glyph unicode="&#xcc;" horiz-adv-x="477" d="M-78 63l549 1377l188 -78l-548 -1376zM336 1905l106 116l312 -340l-99 -96z" />
<glyph unicode="&#xcd;" horiz-adv-x="477" d="M-78 63l549 1377l188 -78l-548 -1376zM446 1710l359 289l88 -133l-365 -267z" />
<glyph unicode="&#xce;" horiz-adv-x="477" d="M-78 63l549 1377l188 -78l-548 -1376zM332 1692q117 59 205 107t174 93l88 -18q33 -43 73 -103.5t99 -142.5l-111 -78l-141 195l-336 -172z" />
<glyph unicode="&#xcf;" horiz-adv-x="477" d="M-78 63l549 1377l188 -78l-548 -1376zM391 1724l78 127l152 -98l-80 -127zM737 1724l80 127l150 -98l-78 -127z" />
<glyph unicode="&#xd1;" horiz-adv-x="1460" d="M-119 33q43 98 93.5 204.5t97.5 206.5q109 233 179.5 397.5t114.5 275t64.5 174t26.5 98.5l202 -9q6 -74 15.5 -136t23 -134t33 -159t49.5 -210q29 -119 57.5 -227t61.5 -205q18 41 46 100.5t59.5 128t66.5 141.5t68 142q53 113 91 197t64.5 146.5t45 109.5t30.5 86 l193 -66q-31 -92 -88.5 -232t-133.5 -294q-55 -113 -103 -213t-92 -197.5t-87 -194.5t-88 -206l-195 16q-18 74 -39.5 151t-42 148.5t-39 134t-30.5 109.5q-12 43 -22.5 86t-23 94.5t-26.5 111.5t-33 138q-25 -61 -48 -117.5t-54 -122t-70 -149.5t-92 -199 q-61 -133 -107 -232t-79 -175zM739 1587q66 72 107 114t100 50q31 4 53.5 1t40 -13t35 -28.5t39.5 -45.5q14 -16 33.5 -36.5t30.5 -22.5q12 -2 38.5 23.5t77.5 86.5l109 -90q-125 -156 -209 -168q-43 -6 -82 13.5t-84 76.5q-12 16 -28.5 33.5t-36.5 22.5q-12 2 -38 -24 t-75 -85z" />
<glyph unicode="&#xd2;" horiz-adv-x="1460" d="M0 420q0 104 25.5 208.5t71.5 203t107.5 188.5t135.5 166q80 82 161 139t157.5 91t148.5 49.5t133 15.5q121 0 211 -41t150.5 -112t91 -165t30.5 -200q0 -111 -22.5 -214.5t-61.5 -197.5t-93 -178t-118 -158q-162 -184 -324.5 -267t-299.5 -83q-127 0 -221.5 46t-158 123 t-94 177t-30.5 209zM205 420q0 -74 18.5 -138.5t56 -111.5t94 -73.5t130.5 -26.5q90 0 214 64.5t255 215.5q106 125 176 280t70 333q0 141 -68 227t-211 86q-43 0 -94 -10.5t-108.5 -37t-120 -71.5t-130.5 -115q-61 -66 -113 -139.5t-89 -153t-58.5 -163.5t-21.5 -166z M764 1974l106 117l312 -340l-99 -96z" />
<glyph unicode="&#xd3;" horiz-adv-x="1460" d="M0 420q0 104 25.5 208.5t71.5 203t107.5 188.5t135.5 166q80 82 161 139t157.5 91t148.5 49.5t133 15.5q121 0 211 -41t150.5 -112t91 -165t30.5 -200q0 -111 -22.5 -214.5t-61.5 -197.5t-93 -178t-118 -158q-162 -184 -324.5 -267t-299.5 -83q-127 0 -221.5 46t-158 123 t-94 177t-30.5 209zM205 420q0 -74 18.5 -138.5t56 -111.5t94 -73.5t130.5 -26.5q90 0 214 64.5t255 215.5q106 125 176 280t70 333q0 141 -68 227t-211 86q-43 0 -94 -10.5t-108.5 -37t-120 -71.5t-130.5 -115q-61 -66 -113 -139.5t-89 -153t-58.5 -163.5t-21.5 -166z M860 1743l359 289l88 -134l-365 -266z" />
<glyph unicode="&#xd4;" horiz-adv-x="1460" d="M0 420q0 104 25.5 208.5t71.5 203t107.5 188.5t135.5 166q80 82 161 139t157.5 91t148.5 49.5t133 15.5q121 0 211 -41t150.5 -112t91 -165t30.5 -200q0 -111 -22.5 -214.5t-61.5 -197.5t-93 -178t-118 -158q-162 -184 -324.5 -267t-299.5 -83q-127 0 -221.5 46t-158 123 t-94 177t-30.5 209zM205 420q0 -74 18.5 -138.5t56 -111.5t94 -73.5t130.5 -26.5q90 0 214 64.5t255 215.5q106 125 176 280t70 333q0 141 -68 227t-211 86q-43 0 -94 -10.5t-108.5 -37t-120 -71.5t-130.5 -115q-61 -66 -113 -139.5t-89 -153t-58.5 -163.5t-21.5 -166z M705 1722q117 59 204.5 107.5t173.5 93.5l88 -18q33 -43 73 -103.5t99 -142.5l-110 -78l-141 195l-336 -172z" />
<glyph unicode="&#xd5;" horiz-adv-x="1460" d="M0 420q0 104 25.5 208.5t71.5 203t107.5 188.5t135.5 166q80 82 161 139t157.5 91t148.5 49.5t133 15.5q121 0 211 -41t150.5 -112t91 -165t30.5 -200q0 -111 -22.5 -214.5t-61.5 -197.5t-93 -178t-118 -158q-76 -88 -157.5 -153.5t-162.5 -109.5t-159 -65.5t-145 -21.5 q-127 0 -221.5 46t-158 123t-94 177t-30.5 209zM205 420q0 -74 18.5 -138.5t56 -111.5t94 -73.5t130.5 -26.5q90 0 214 64.5t255 215.5q106 125 176 280t70 333q0 141 -68 227t-211 86q-43 0 -94 -10.5t-108.5 -37t-120 -71.5t-130.5 -115q-61 -66 -113 -139.5t-89 -153 t-58.5 -163.5t-21.5 -166zM698 1712q66 72 107 114t100 50q31 4 53.5 1t40 -13.5t35 -28.5t39.5 -45q14 -16 33.5 -36.5t30.5 -22.5q12 -2 38.5 23.5t77.5 86.5l109 -90q-125 -156 -209 -168q-43 -6 -82 13.5t-84 76.5q-12 16 -28.5 33.5t-36.5 22.5q-12 2 -38 -24t-75 -85z " />
<glyph unicode="&#xd6;" horiz-adv-x="1460" d="M0 420q0 104 25.5 208.5t71.5 203t107.5 188.5t135.5 166q80 82 161 139t157.5 91t148.5 49.5t133 15.5q121 0 211 -41t150.5 -112t91 -165t30.5 -200q0 -111 -22.5 -214.5t-61.5 -197.5t-93 -178t-118 -158q-162 -184 -324.5 -267t-299.5 -83q-127 0 -221.5 46t-158 123 t-94 177t-30.5 209zM205 420q0 -74 18.5 -138.5t56 -111.5t94 -73.5t130.5 -26.5q90 0 214 64.5t255 215.5q106 125 176 280t70 333q0 141 -68 227t-211 86q-43 0 -94 -10.5t-108.5 -37t-120 -71.5t-130.5 -115q-61 -66 -113 -139.5t-89 -153t-58.5 -163.5t-21.5 -166z M758 1737l78 127l151 -99l-80 -127zM1104 1737l80 127l149 -99l-78 -127z" />
<glyph unicode="&#xd8;" horiz-adv-x="1460" d="M-74 -186l191 231q-59 76 -88 173t-29 202q0 104 25.5 208.5t71.5 203t107.5 188.5t135.5 166q80 82 161 139t157.5 91t148.5 49.5t133 15.5q86 0 156.5 -21.5t128.5 -60.5l174 215l108 -70l-190 -233q106 -141 106 -348q0 -111 -22.5 -214.5t-62.5 -196.5t-93 -178 t-117 -159q-76 -88 -157.5 -153.5t-162.5 -109.5t-159 -65.5t-145 -21.5q-90 0 -163 23.5t-132 66.5l-174 -213zM205 420q0 -119 47 -207l840 1026q-61 37 -152 37q-43 0 -94 -10.5t-108.5 -37t-120 -71.5t-130.5 -115q-61 -66 -113 -139.5t-89 -153t-58.5 -163.5 t-21.5 -166zM340 115q68 -45 164 -45q90 0 214 64.5t255 215.5q106 125 176 279.5t70 333.5q0 104 -37 182z" />
<glyph unicode="&#xd9;" horiz-adv-x="1415" d="M-33 90q0 92 53.5 235.5t131.5 317.5q37 84 76.5 167t83.5 170t92.5 182t103.5 204l180 -94q-111 -213 -191.5 -378t-146.5 -312q-59 -131 -101 -233.5t-61 -172.5q78 51 193 140.5t270 230.5q68 61 143.5 134t151.5 151.5t148.5 162.5t136.5 168q14 35 28.5 71t38.5 95 l189 -78q-41 -102 -78 -190t-74 -173t-76.5 -174t-84.5 -190q-41 -92 -76 -171t-66 -149.5t-58.5 -137t-55.5 -136.5l-189 74q16 41 43 103.5t58.5 138.5t67.5 157.5t73 163.5q-96 -94 -194.5 -184t-194 -168t-182 -141.5t-160.5 -104.5q-41 -23 -69 -32t-58 -9 q-43 0 -71 15.5t-44 39t-23.5 52t-7.5 55.5zM758 1706l106 117l312 -340l-99 -97z" />
<glyph unicode="&#xda;" horiz-adv-x="1415" d="M-33 90q0 92 53.5 235.5t131.5 317.5q37 84 76.5 167t83.5 170t92.5 182t103.5 204l180 -94q-111 -213 -191.5 -378t-146.5 -312q-59 -131 -101 -233.5t-61 -172.5q78 51 193 140.5t270 230.5q68 61 143.5 134t151.5 151.5t148.5 162.5t136.5 168q14 35 28.5 71t38.5 95 l189 -78q-41 -102 -78 -190t-74 -173t-76.5 -174t-84.5 -190q-41 -92 -76 -171t-66 -149.5t-58.5 -137t-55.5 -136.5l-189 74q16 41 43 103.5t58.5 138.5t67.5 157.5t73 163.5q-96 -94 -194.5 -184t-194 -168t-182 -141.5t-160.5 -104.5q-41 -23 -69 -32t-58 -9 q-43 0 -71 15.5t-44 39t-23.5 52t-7.5 55.5zM899 1589l358 289l89 -133l-365 -266z" />
<glyph unicode="&#xdb;" horiz-adv-x="1415" d="M-33 90q0 92 53.5 235.5t131.5 317.5q37 84 76.5 167t83.5 170t92.5 182t103.5 204l180 -94q-111 -213 -191.5 -378t-146.5 -312q-59 -131 -101 -233.5t-61 -172.5q78 51 193 140.5t270 230.5q68 61 143.5 134t151.5 151.5t148.5 162.5t136.5 168q14 35 28.5 71t38.5 95 l189 -78q-41 -102 -78 -190t-74 -173t-76.5 -174t-84.5 -190q-41 -92 -76 -171t-66 -149.5t-58.5 -137t-55.5 -136.5l-189 74q16 41 43 103.5t58.5 138.5t67.5 157.5t73 163.5q-96 -94 -194.5 -184t-194 -168t-182 -141.5t-160.5 -104.5q-41 -23 -69 -32t-58 -9 q-43 0 -71 15.5t-44 39t-23.5 52t-7.5 55.5zM719 1581q117 59 205 107.5t174 93.5l88 -19q33 -43 73 -103t99 -142l-111 -78l-141 194l-336 -172z" />
<glyph unicode="&#xdc;" horiz-adv-x="1415" d="M-33 90q0 92 53.5 235.5t131.5 317.5q37 84 76.5 167t83.5 170t92.5 182t103.5 204l180 -94q-111 -213 -191.5 -378t-146.5 -312q-59 -131 -101 -233.5t-61 -172.5q78 51 193 140.5t270 230.5q68 61 143.5 134t151.5 151.5t148.5 162.5t136.5 168q14 35 28.5 71t38.5 95 l189 -78q-41 -102 -78 -190t-74 -173t-76.5 -174t-84.5 -190q-41 -92 -76 -171t-66 -149.5t-58.5 -137t-55.5 -136.5l-189 74q16 41 43 103.5t58.5 138.5t67.5 157.5t73 163.5q-96 -94 -194.5 -184t-194 -168t-182 -141.5t-160.5 -104.5q-41 -23 -69 -32t-58 -9 q-43 0 -71 15.5t-44 39t-23.5 52t-7.5 55.5zM782 1589l78 127l152 -98l-80 -127zM1128 1589l80 127l150 -98l-78 -127z" />
<glyph unicode="&#xdf;" horiz-adv-x="1171" d="M-166 -123q29 86 63.5 186.5t71.5 203t76 201.5t74 185q49 119 91 210t77 159t62.5 115t47.5 77q43 68 99.5 121.5t116 90t120 55t111.5 18.5q37 0 90 -18.5t98 -59.5t71.5 -105.5t12.5 -156.5q-6 -39 -17.5 -67.5t-27.5 -53t-37.5 -48t-48.5 -50.5q-14 -14 -37.5 -33.5 t-49.5 -40t-52.5 -40t-44.5 -33.5q-20 -16 -44 -33t-44.5 -33t-34.5 -31.5t-14 -27.5q0 -10 25.5 -34t72.5 -50q57 -33 103 -62.5t79 -68.5t49.5 -90.5t16.5 -124.5q0 -41 -19.5 -79t-50.5 -72t-68.5 -61.5t-74.5 -48.5q-94 -51 -169 -66t-134 -15q-88 0 -150.5 36.5 t-93.5 85.5l141 146q16 -23 42 -43.5t61 -20.5q39 0 88 10.5t116 47.5q43 23 75 48t32 54q0 12 -1 25.5t-14.5 30t-42 38t-83.5 49.5q-37 18 -73 44t-65.5 59t-48 72.5t-18.5 89.5q0 61 32.5 109t73.5 89t90.5 77t87.5 65q92 68 130 107.5t42 72.5q6 47 -14 76.5t-57 29.5 q-51 0 -131.5 -47t-143.5 -143q-61 -94 -125.5 -222t-136.5 -307q-35 -84 -71.5 -181t-72.5 -196.5t-71 -198.5t-65 -187z" />
<glyph unicode="&#xe0;" d="M-92 201q0 119 70.5 259t224.5 294q72 72 155.5 135t173 113.5t179.5 83t172 40.5l8 -88l135 -59q-25 -68 -62.5 -154t-84.5 -172q-59 -137 -128 -318t-143 -396l-182 61l66 203q-113 -152 -205 -210.5t-170 -58.5q-102 0 -155.5 77t-53.5 190zM111 197q0 -23 5 -36.5 t27 -13.5q31 0 63 20.5t60.5 49.5t54 59t41.5 48q94 102 161 176.5t116 150.5q12 18 24.5 37t22.5 37q18 45 36.5 85t35.5 77q-100 -39 -208 -112t-204 -169q-129 -129 -182 -234.5t-53 -174.5zM504 1577l106 117l312 -340l-99 -97z" />
<glyph unicode="&#xe1;" d="M-92 201q0 119 70.5 259t224.5 294q72 72 155.5 135t173 113.5t179.5 83t172 40.5l8 -88l135 -59q-25 -68 -62.5 -154t-84.5 -172q-59 -137 -128 -318t-143 -396l-182 61l66 203q-113 -152 -205 -210.5t-170 -58.5q-102 0 -155.5 77t-53.5 190zM111 197q0 -23 5 -36.5 t27 -13.5q31 0 63 20.5t60.5 49.5t54 59t41.5 48q94 102 161 176.5t116 150.5q12 18 24.5 37t22.5 37q18 45 36.5 85t35.5 77q-100 -39 -208 -112t-204 -169q-129 -129 -182 -234.5t-53 -174.5zM635 1364l358 289l88 -133l-364 -267z" />
<glyph unicode="&#xe2;" d="M-92 201q0 119 70.5 259t224.5 294q72 72 155.5 135t173 113.5t179.5 83t172 40.5l8 -88l135 -59q-25 -68 -62.5 -154t-84.5 -172q-59 -137 -128 -318t-143 -396l-182 61l66 203q-113 -152 -205 -210.5t-170 -58.5q-102 0 -155.5 77t-53.5 190zM111 197q0 -23 5 -36.5 t27 -13.5q31 0 63 20.5t60.5 49.5t54 59t41.5 48q94 102 161 176.5t116 150.5q12 18 24.5 37t22.5 37q18 45 36.5 85t35.5 77q-100 -39 -208 -112t-204 -169q-129 -129 -182 -234.5t-53 -174.5zM510 1362q117 59 205 107.5t174 93.5l88 -19q33 -43 73 -103.5t99 -142.5 l-111 -77l-141 194l-336 -172z" />
<glyph unicode="&#xe3;" d="M-92 201q0 119 70.5 259t224.5 294q72 72 155.5 135t173 113.5t179.5 83t172 40.5l8 -88l135 -59q-25 -68 -62.5 -154t-84.5 -172q-59 -137 -128 -318t-143 -396l-182 61l66 203q-113 -152 -205 -210.5t-170 -58.5q-102 0 -155.5 77t-53.5 190zM111 197q0 -23 5 -36.5 t27 -13.5q31 0 63 20.5t60.5 49.5t54 59t41.5 48q94 102 161 176.5t116 150.5q12 18 24.5 37t22.5 37q18 45 36.5 85t35.5 77q-100 -39 -208 -112t-204 -169q-129 -129 -182 -234.5t-53 -174.5zM434 1366q66 72 107 114t100 50q31 4 53.5 1t40 -13.5t34.5 -29t40 -44.5 q14 -16 33.5 -37t29.5 -23q12 -2 39 24t78 87l109 -90q-125 -156 -209 -168q-43 -6 -82 13.5t-84 76.5q-12 16 -28.5 33.5t-37.5 21.5q-12 2 -37.5 -23.5t-74.5 -84.5z" />
<glyph unicode="&#xe4;" d="M-92 201q0 119 70.5 259t224.5 294q72 72 155.5 135t173 113.5t179.5 83t172 40.5l8 -88l135 -59q-25 -68 -62.5 -154t-84.5 -172q-59 -137 -128 -318t-143 -396l-182 61l66 203q-113 -152 -205 -210.5t-170 -58.5q-102 0 -155.5 77t-53.5 190zM111 197q0 -23 5 -36.5 t27 -13.5q31 0 63 20.5t60.5 49.5t54 59t41.5 48q94 102 161 176.5t116 150.5q12 18 24.5 37t22.5 37q18 45 36.5 85t35.5 77q-100 -39 -208 -112t-204 -169q-129 -129 -182 -234.5t-53 -174.5zM539 1376l77 127l152 -98l-80 -127zM885 1376l80 127l149 -98l-78 -127z" />
<glyph unicode="&#xe5;" d="M-92 201q0 119 70.5 259t224.5 294q72 72 155.5 135t173 113.5t179.5 83t172 40.5l8 -88l135 -59q-25 -68 -62.5 -154t-84.5 -172q-59 -137 -128 -318t-143 -396l-182 61l66 203q-113 -152 -205 -210.5t-170 -58.5q-102 0 -155.5 77t-53.5 190zM111 197q0 -23 5 -36.5 t27 -13.5q31 0 63 20.5t60.5 49.5t54 59t41.5 48q94 102 161 176.5t116 150.5q12 18 24.5 37t22.5 37q18 45 36.5 85t35.5 77q-100 -39 -208 -112t-204 -169q-129 -129 -182 -234.5t-53 -174.5zM645 1419q0 37 13.5 72t39 63.5t62.5 46t84 17.5q37 0 71.5 -13.5t63.5 -39 t46 -62.5t17 -84q0 -37 -13 -71.5t-38.5 -63.5t-62.5 -46t-84 -17q-37 0 -72 13t-63.5 38.5t-46 62.5t-17.5 84zM719 1419q0 -59 39 -92t86 -33q59 0 92 39t33 86q0 59 -39 92t-86 33q-59 0 -92 -39t-33 -86z" />
<glyph unicode="&#xe6;" horiz-adv-x="1478" d="M-92 201q0 137 76.5 273t214.5 274q160 160 338 260t346 118l8 -88l100 -45q92 78 164 110t133 32q53 0 93 -18.5t67 -50.5t40 -73t13 -84q0 -104 -62.5 -203.5t-178.5 -185.5q-55 -41 -118 -69.5t-126.5 -49t-124 -34t-111.5 -19.5q-12 -49 -12 -104q0 -66 19.5 -97.5 t52.5 -31.5q27 0 69.5 19.5t108.5 84.5l143 -143q-92 -92 -173 -129t-148 -37q-57 0 -108.5 21.5t-96.5 80.5q-8 -20 -18.5 -47.5t-20.5 -50.5l-186 68q6 14 15 39.5t18.5 53t18.5 52.5t15 41q-41 -45 -81 -87t-83 -75t-92 -52.5t-104 -19.5q-94 0 -151.5 75t-57.5 192z M113 201q0 -23 4 -39.5t14 -16.5q18 0 53 22.5t101 82.5q84 80 142 139.5t102 111.5t81 106t80 128q16 41 32.5 77t31.5 71q-102 -41 -210 -113t-202 -166q-106 -106 -167.5 -214.5t-61.5 -188.5zM887 578q68 16 132 42.5t122 67.5q82 59 118.5 118.5t36.5 102.5 q0 20 -12 21q-16 0 -50 -13.5t-97 -66.5q-74 -63 -137.5 -131.5t-112.5 -140.5z" />
<glyph unicode="&#xe7;" horiz-adv-x="765" d="M-74 223q0 51 13.5 115.5t40 135.5t64.5 144.5t87 147.5q111 166 232.5 258t257.5 92q117 0 177 -67.5t60 -184.5q0 -41 -22 -119l-197 58q10 29 11 46t1 34q0 23 -7 25.5t-23 2.5q-66 0 -146 -59t-172 -201q-53 -82 -87 -148.5t-52.5 -120.5t-25.5 -93t-7 -66 q0 -45 24.5 -74.5t53.5 -29.5q31 0 77 27.5t107 99.5l156 -131q-172 -201 -340 -201q-63 0 -115.5 25.5t-89.5 68.5t-57.5 98.5t-20.5 116.5zM-14 -258q33 55 61.5 107.5t50.5 91.5q47 84 90 161l107 -61q-8 -16 -20.5 -38.5t-25.5 -45.5t-25.5 -44.5t-18.5 -33.5 q-16 -31 -47 -85t-66 -113z" />
<glyph unicode="&#xe8;" horiz-adv-x="784" d="M-76 244q0 106 35 209.5t95.5 201t140 185.5t172.5 166q88 74 156.5 101.5t125.5 27.5q53 0 93 -18.5t67 -50.5t40 -73t13 -84q0 -104 -62.5 -203.5t-178.5 -185.5q-55 -39 -118 -68.5t-126.5 -50t-125 -34t-112.5 -21.5q-4 -25 -7 -49.5t-3 -52.5q0 -66 19.5 -97.5 t52.5 -31.5q27 0 69.5 19.5t108.5 84.5l143 -143q-92 -92 -173 -129t-148 -37q-121 0 -199 90t-78 244zM250 580q68 16 131 41.5t121 66.5q82 59 118.5 118.5t36.5 102.5q0 6 -1 13.5t-7 7.5q-20 0 -54 -13.5t-97 -66.5q-148 -123 -248 -270zM315 1599l107 117l311 -340 l-98 -96z" />
<glyph unicode="&#xe9;" horiz-adv-x="784" d="M-76 244q0 106 35 209.5t95.5 201t140 185.5t172.5 166q88 74 156.5 101.5t125.5 27.5q53 0 93 -18.5t67 -50.5t40 -73t13 -84q0 -104 -62.5 -203.5t-178.5 -185.5q-55 -39 -118 -68.5t-126.5 -50t-125 -34t-112.5 -21.5q-4 -25 -7 -49.5t-3 -52.5q0 -66 19.5 -97.5 t52.5 -31.5q27 0 69.5 19.5t108.5 84.5l143 -143q-92 -92 -173 -129t-148 -37q-121 0 -199 90t-78 244zM250 580q68 16 131 41.5t121 66.5q82 59 118.5 118.5t36.5 102.5q0 6 -1 13.5t-7 7.5q-20 0 -54 -13.5t-97 -66.5q-148 -123 -248 -270zM516 1376l358 289l89 -133 l-365 -266z" />
<glyph unicode="&#xea;" horiz-adv-x="784" d="M-76 244q0 106 35 209.5t95.5 201t140 185.5t172.5 166q88 74 156.5 101.5t125.5 27.5q53 0 93 -18.5t67 -50.5t40 -73t13 -84q0 -104 -62.5 -203.5t-178.5 -185.5q-55 -39 -118 -68.5t-126.5 -50t-125 -34t-112.5 -21.5q-4 -25 -7 -49.5t-3 -52.5q0 -66 19.5 -97.5 t52.5 -31.5q27 0 69.5 19.5t108.5 84.5l143 -143q-92 -92 -173 -129t-148 -37q-121 0 -199 90t-78 244zM250 580q68 16 131 41.5t121 66.5q82 59 118.5 118.5t36.5 102.5q0 6 -1 13.5t-7 7.5q-20 0 -54 -13.5t-97 -66.5q-148 -123 -248 -270zM346 1389q117 59 205 107 t174 93l88 -18q33 -43 73 -103.5t99 -142.5l-111 -78l-141 195l-336 -172z" />
<glyph unicode="&#xeb;" horiz-adv-x="784" d="M-76 244q0 106 35 209.5t95.5 201t140 185.5t172.5 166q88 74 156.5 101.5t125.5 27.5q53 0 93 -18.5t67 -50.5t40 -73t13 -84q0 -104 -62.5 -203.5t-178.5 -185.5q-55 -39 -118 -68.5t-126.5 -50t-125 -34t-112.5 -21.5q-4 -25 -7 -49.5t-3 -52.5q0 -66 19.5 -97.5 t52.5 -31.5q27 0 69.5 19.5t108.5 84.5l143 -143q-92 -92 -173 -129t-148 -37q-121 0 -199 90t-78 244zM250 580q68 16 131 41.5t121 66.5q82 59 118.5 118.5t36.5 102.5q0 6 -1 13.5t-7 7.5q-20 0 -54 -13.5t-97 -66.5q-148 -123 -248 -270zM397 1380l78 127l152 -98 l-80 -127zM743 1380l80 127l150 -98l-78 -127z" />
<glyph unicode="&#xec;" horiz-adv-x="378" d="M-113 94q14 49 39 119t55.5 150.5t66.5 170t72 175.5t70.5 164.5t65.5 142.5l184 -90q-49 -98 -102 -222t-102.5 -248t-90.5 -234.5t-61 -184.5zM76 1464l106 117l312 -340l-99 -96z" />
<glyph unicode="&#xed;" horiz-adv-x="378" d="M-113 94q14 49 39 119t55.5 150.5t66.5 170t72 175.5t70.5 164.5t65.5 142.5l184 -90q-49 -98 -102 -222t-102.5 -248t-90.5 -234.5t-61 -184.5zM223 1251l359 289l88 -133l-365 -266z" />
<glyph unicode="&#xee;" horiz-adv-x="378" d="M-113 94q14 49 39 119t55.5 150.5t66.5 170t72 175.5t70.5 164.5t65.5 142.5l184 -90q-49 -98 -102 -222t-102.5 -248t-90.5 -234.5t-61 -184.5zM115 1217q117 59 205 107t174 93l88 -18q33 -43 73 -103.5t99 -142.5l-111 -78l-141 195l-336 -172z" />
<glyph unicode="&#xef;" horiz-adv-x="378" d="M-113 94q14 49 39 119t55.5 150.5t66.5 170t72 175.5t70.5 164.5t65.5 142.5l184 -90q-49 -98 -102 -222t-102.5 -248t-90.5 -234.5t-61 -184.5zM152 1262l77 127l152 -99l-80 -127zM498 1262l80 127l149 -99l-78 -127z" />
<glyph unicode="&#xf1;" horiz-adv-x="901" d="M-121 76q25 66 49.5 130t46.5 122q12 31 34 84t48.5 114.5t52 123t44.5 108.5q14 37 30.5 78t30.5 80.5t26.5 73.5t18.5 59l201 -50q-2 -12 -9.5 -32.5t-16.5 -45t-19 -50t-19 -50.5q41 41 79 75t78 64.5t83 60.5t94 64q57 37 104.5 39t75.5 -24q33 -29 41.5 -73 t-14.5 -95q-25 -55 -54.5 -127t-61 -152t-64.5 -162.5t-62 -158.5q-20 -53 -38.5 -106.5t-35 -101.5t-29.5 -88t-20 -65l-196 58q12 43 27.5 92t33 99t33.5 97.5t33 88.5q8 25 25.5 66.5t39 97t48 121t57.5 134.5l-2 2q-88 -84 -170 -154.5t-152 -148.5t-121 -166t-96 -192 q-16 -37 -31.5 -76t-27.5 -80zM367 1384q66 72 106.5 114t99.5 50q31 4 53.5 1t40 -13t35 -28.5t39.5 -45.5q14 -16 34 -36.5t30 -22.5q12 -2 38.5 23.5t78.5 86.5l108 -90q-125 -156 -209 -168q-43 -6 -82 13.5t-84 77.5q-12 16 -28.5 33.5t-36.5 21.5q-12 2 -38 -23.5 t-75 -85.5z" />
<glyph unicode="&#xf2;" horiz-adv-x="792" d="M-70 215q0 72 21.5 160t55.5 177t75 171t82 143q39 57 84 109.5t94 91.5t102.5 61.5t108.5 22.5q37 0 77 -13.5t74.5 -45t57 -87t22.5 -139.5q0 -72 -18 -154.5t-51 -168.5t-75 -170t-87 -158q-190 -303 -379 -303q-59 0 -104 23.5t-76 65.5t-47.5 97.5t-16.5 116.5z M135 215q0 -59 14.5 -78.5t24.5 -19.5q12 0 30.5 9t44 31.5t58.5 63.5t74 105q39 61 75 133.5t63.5 145.5t44 141.5t16.5 119.5q0 49 -9.5 64.5t-17.5 15.5q-39 0 -94.5 -45t-122.5 -149q-41 -61 -77 -132t-63.5 -142.5t-44 -139.5t-16.5 -123zM246 1604l106 116l312 -340 l-99 -96z" />
<glyph unicode="&#xf3;" horiz-adv-x="792" d="M-70 215q0 72 21.5 160t55.5 177t75 171t82 143q39 57 84 109.5t94 91.5t102.5 61.5t108.5 22.5q37 0 77 -13.5t74.5 -45t57 -87t22.5 -139.5q0 -72 -18 -154.5t-51 -168.5t-75 -170t-87 -158q-190 -303 -379 -303q-59 0 -104 23.5t-76 65.5t-47.5 97.5t-16.5 116.5z M135 215q0 -59 14.5 -78.5t24.5 -19.5q12 0 30.5 9t44 31.5t58.5 63.5t74 105q39 61 75 133.5t63.5 145.5t44 141.5t16.5 119.5q0 49 -9.5 64.5t-17.5 15.5q-39 0 -94.5 -45t-122.5 -149q-41 -61 -77 -132t-63.5 -142.5t-44 -139.5t-16.5 -123zM526 1391l359 288l88 -133 l-365 -266z" />
<glyph unicode="&#xf4;" horiz-adv-x="792" d="M-70 215q0 72 21.5 160t55.5 177t75 171t82 143q39 57 84 109.5t94 91.5t102.5 61.5t108.5 22.5q37 0 77 -13.5t74.5 -45t57 -87t22.5 -139.5q0 -72 -18 -154.5t-51 -168.5t-75 -170t-87 -158q-190 -303 -379 -303q-59 0 -104 23.5t-76 65.5t-47.5 97.5t-16.5 116.5z M135 215q0 -59 14.5 -78.5t24.5 -19.5q12 0 30.5 9t44 31.5t58.5 63.5t74 105q39 61 75 133.5t63.5 145.5t44 141.5t16.5 119.5q0 49 -9.5 64.5t-17.5 15.5q-39 0 -94.5 -45t-122.5 -149q-41 -61 -77 -132t-63.5 -142.5t-44 -139.5t-16.5 -123zM283 1372q117 59 204.5 107.5 t174.5 93.5l88 -19q33 -43 73 -103t99 -142l-111 -78l-141 194l-336 -172z" />
<glyph unicode="&#xf5;" horiz-adv-x="792" d="M-70 215q0 72 21.5 160t55.5 177t75 171t82 143q39 57 84 109.5t94 91.5t102.5 61.5t108.5 22.5q37 0 77 -13.5t74.5 -45t57 -87t22.5 -139.5q0 -72 -18 -154.5t-51 -168.5t-75 -170t-87 -158q-190 -303 -379 -303q-59 0 -104 23.5t-76 65.5t-47.5 97.5t-16.5 116.5z M135 215q0 -59 14.5 -78.5t24.5 -19.5q12 0 30.5 9t44 31.5t58.5 63.5t74 105q39 61 75 133.5t63.5 145.5t44 141.5t16.5 119.5q0 49 -9.5 64.5t-17.5 15.5q-39 0 -94.5 -45t-122.5 -149q-41 -61 -77 -132t-63.5 -142.5t-44 -139.5t-16.5 -123zM315 1425q66 72 107 114 t100 50q31 4 53.5 1t40 -13t35 -28.5t39.5 -45.5q14 -16 33.5 -36.5t30.5 -22.5q12 -2 38.5 23.5t77.5 86.5l109 -90q-125 -156 -209 -168q-43 -6 -82 13.5t-84 76.5q-12 16 -28.5 34t-36.5 22q-12 2 -38 -23.5t-75 -85.5z" />
<glyph unicode="&#xf6;" horiz-adv-x="792" d="M-70 215q0 72 21.5 160t55.5 177t75 171t82 143q39 57 84 109.5t94 91.5t102.5 61.5t108.5 22.5q37 0 77 -13.5t74.5 -45t57 -87t22.5 -139.5q0 -72 -18 -154.5t-51 -168.5t-75 -170t-87 -158q-190 -303 -379 -303q-59 0 -104 23.5t-76 65.5t-47.5 97.5t-16.5 116.5z M135 215q0 -59 14.5 -78.5t24.5 -19.5q12 0 30.5 9t44 31.5t58.5 63.5t74 105q39 61 75 133.5t63.5 145.5t44 141.5t16.5 119.5q0 49 -9.5 64.5t-17.5 15.5q-39 0 -94.5 -45t-122.5 -149q-41 -61 -77 -132t-63.5 -142.5t-44 -139.5t-16.5 -123zM332 1391l78 127l151 -99 l-80 -127zM678 1391l80 127l149 -99l-78 -127z" />
<glyph unicode="&#xf7;" horiz-adv-x="882" d="M123 381v68h641v-68h-641zM381 229q0 27 16.5 47.5t42.5 20.5q27 0 46.5 -18.5t19.5 -45.5t-19.5 -45t-46.5 -18q-25 0 -42 17.5t-17 41.5zM381 590q-2 27 15.5 47t43.5 20q27 0 46.5 -18t19.5 -45t-19.5 -44.5t-46.5 -17.5q-25 0 -41 16.5t-18 41.5z" />
<glyph unicode="&#xf8;" horiz-adv-x="792" d="M-190 -90l141 174q-20 59 -21 131q0 72 21.5 160t55.5 177t75 171t82 143q39 57 83 109.5t93 91.5t103.5 61.5t109.5 22.5q47 0 99.5 -22.5t86.5 -79.5l113 139l39 -33l-127 -158q10 -29 15 -59.5t5 -71.5q0 -72 -18 -154.5t-51 -168.5t-75 -170t-87 -158 q-190 -303 -379 -303q-70 0 -120 32.5t-81 86.5l-125 -156zM135 227q0 -41 5 -62.5t11.5 -32.5t12.5 -13t10 -2q12 0 30.5 9t44 31.5t58.5 63.5t74 105q31 45 58.5 99t52 110.5t43 113t30.5 107.5zM147 324l433 530q0 61 -9.5 76.5t-17.5 15.5q-39 0 -94.5 -45t-122.5 -149 q-61 -94 -113.5 -209t-75.5 -219z" />
<glyph unicode="&#xf9;" horiz-adv-x="882" d="M-135 92q0 25 15.5 70t40 100t54 117.5t58.5 124.5q43 88 87 178t85 169t72.5 139.5t50.5 90.5l180 -98q-37 -68 -72 -132.5t-69.5 -132t-71.5 -141t-78 -159.5q-18 -39 -39.5 -86t-50.5 -99l6 -2q35 27 86 64t103.5 75t98 74.5t68.5 65.5q29 31 62 94q14 27 43 82 t62.5 120.5t68.5 134.5t63 124l185 -90q-43 -88 -99.5 -203t-136.5 -260q-39 -70 -70.5 -136.5t-45.5 -94.5q-20 -43 -40 -89.5t-35.5 -88.5t-25.5 -77.5t-16 -60.5l-193 45q2 14 7.5 33.5t9.5 39t9 38t9 31.5q-68 -61 -123 -101.5t-98 -62t-74 -29.5t-49 -8q-59 0 -99 40 t-38 101zM379 1507l106 117l312 -340l-99 -96z" />
<glyph unicode="&#xfa;" horiz-adv-x="882" d="M-135 92q0 25 15.5 70t40 100t54 117.5t58.5 124.5q43 88 87 178t85 169t72.5 139.5t50.5 90.5l180 -98q-37 -68 -72 -132.5t-69.5 -132t-71.5 -141t-78 -159.5q-18 -39 -39.5 -86t-50.5 -99l6 -2q35 27 86 64t103.5 75t98 74.5t68.5 65.5q29 31 62 94q14 27 43 82 t62.5 120.5t68.5 134.5t63 124l185 -90q-43 -88 -99.5 -203t-136.5 -260q-39 -70 -70.5 -136.5t-45.5 -94.5q-20 -43 -40 -89.5t-35.5 -88.5t-25.5 -77.5t-16 -60.5l-193 45q2 14 7.5 33.5t9.5 39t9 38t9 31.5q-68 -61 -123 -101.5t-98 -62t-74 -29.5t-49 -8q-59 0 -99 40 t-38 101zM588 1303l358 288l88 -133l-364 -266z" />
<glyph unicode="&#xfb;" horiz-adv-x="882" d="M-135 92q0 25 15.5 70t40 100t54 117.5t58.5 124.5q43 88 87 178t85 169t72.5 139.5t50.5 90.5l180 -98q-37 -68 -72 -132.5t-69.5 -132t-71.5 -141t-78 -159.5q-18 -39 -39.5 -86t-50.5 -99l6 -2q35 27 86 64t103.5 75t98 74.5t68.5 65.5q29 31 62 94q14 27 43 82 t62.5 120.5t68.5 134.5t63 124l185 -90q-43 -88 -99.5 -203t-136.5 -260q-39 -70 -70.5 -136.5t-45.5 -94.5q-20 -43 -40 -89.5t-35.5 -88.5t-25.5 -77.5t-16 -60.5l-193 45q2 14 7.5 33.5t9.5 39t9 38t9 31.5q-68 -61 -123 -101.5t-98 -62t-74 -29.5t-49 -8q-59 0 -99 40 t-38 101zM401 1319q117 59 205 107.5t174 93.5l88 -19q33 -43 73 -103.5t99 -142.5l-110 -77l-142 194l-335 -172z" />
<glyph unicode="&#xfc;" horiz-adv-x="882" d="M-135 92q0 25 15.5 70t40 100t54 117.5t58.5 124.5q43 88 87 178t85 169t72.5 139.5t50.5 90.5l180 -98q-37 -68 -72 -132.5t-69.5 -132t-71.5 -141t-78 -159.5q-18 -39 -39.5 -86t-50.5 -99l6 -2q35 27 86 64t103.5 75t98 74.5t68.5 65.5q29 31 62 94q14 27 43 82 t62.5 120.5t68.5 134.5t63 124l185 -90q-43 -88 -99.5 -203t-136.5 -260q-39 -70 -70.5 -136.5t-45.5 -94.5q-20 -43 -40 -89.5t-35.5 -88.5t-25.5 -77.5t-16 -60.5l-193 45q2 14 7.5 33.5t9.5 39t9 38t9 31.5q-68 -61 -123 -101.5t-98 -62t-74 -29.5t-49 -8q-59 0 -99 40 t-38 101zM463 1303l78 127l151 -99l-80 -127zM809 1303l80 127l149 -99l-77 -127z" />
<glyph unicode="&#xff;" horiz-adv-x="837" d="M-236 -303q31 37 76 93t93.5 115.5t90.5 113t66 83.5l-57 7q23 256 40 483t38 436l204 -24q-12 -115 -20 -208.5t-14.5 -175t-11.5 -156.5t-11 -151q70 88 148.5 189.5t154.5 199t144.5 184.5t119.5 148l160 -127q-57 -72 -125.5 -160t-140.5 -179t-142.5 -179 t-127.5 -162q-117 -147 -253.5 -320t-271.5 -341zM356 1278l78 127l152 -98l-80 -127zM702 1278l80 127l150 -98l-78 -127z" />
<glyph unicode="&#x152;" horiz-adv-x="2199" d="M0 420q0 104 25.5 208.5t71.5 203t107.5 188.5t135.5 166q80 82 161 139t157.5 91t148.5 49.5t133 15.5q180 0 293 -87t160 -227l26 64l13 199q88 -4 181 -5.5t186 -0.5t182.5 3.5t168.5 6.5l9 -205q-139 -6 -262 -8t-259 -2l-147 -345q86 8 179 13.5t204 13.5l12 -205 q-156 -10 -274.5 -18t-210.5 -12l-236 -547q154 10 305.5 21.5t268.5 15.5l4 -205q-63 0 -164.5 -7t-213.5 -15.5t-223.5 -16.5t-195.5 -10l-6 135q-113 -86 -225.5 -129t-210.5 -43q-127 0 -221.5 46t-158 123t-94 177t-30.5 209zM205 420q0 -74 18.5 -138.5t56 -111.5 t94 -73.5t130.5 -26.5q90 0 214 64.5t255 215.5q117 135 184 301q-16 0 -34.5 -1t-35.5 -1l-4 205q29 0 66 2t63 4q6 49 7 103q0 141 -68 227t-211 86q-43 0 -94 -10.5t-108.5 -37t-120 -71.5t-130.5 -115q-61 -66 -113 -139.5t-89 -153t-58.5 -163.5t-21.5 -166z" />
<glyph unicode="&#x153;" horiz-adv-x="1351" d="M-70 215q0 76 22.5 166t57.5 179t77 169t79 137q92 135 190.5 210t196.5 75q70 0 115 -29.5t73 -77.5q23 -37 31 -68.5t10 -60.5q25 23 49.5 45.5t51.5 45.5q88 74 156.5 101.5t125.5 27.5q53 0 93 -18.5t67 -50.5t40 -73t13 -84q0 -104 -62.5 -203.5t-178.5 -185.5 q-55 -41 -118 -69.5t-125.5 -50t-123.5 -35t-113 -19.5q-12 -49 -12 -102q0 -66 19.5 -97.5t52.5 -31.5q27 0 69.5 19.5t108.5 84.5l143 -143q-92 -92 -173 -129t-148 -37q-55 0 -95 16.5t-71 43t-51.5 59t-34.5 65.5q-70 -86 -143.5 -134t-147.5 -48q-59 0 -104 23.5 t-76 65.5t-47.5 97.5t-16.5 116.5zM135 215q0 -59 14.5 -78.5t24.5 -19.5q23 0 79 48t128 161q39 61 76 135t63.5 146.5t43 140t16.5 118.5q0 49 -9.5 64.5t-17.5 15.5q-31 0 -86 -42t-129 -152q-37 -55 -73 -124t-65.5 -141.5t-47 -143.5t-17.5 -128zM764 578 q68 16 132.5 42.5t121.5 67.5q82 59 119 118.5t37 102.5q0 20 -9 21q-20 0 -54 -13.5t-97 -66.5q-74 -63 -137.5 -131.5t-112.5 -140.5z" />
<glyph unicode="&#x178;" horiz-adv-x="1085" d="M59 -358q92 156 161 270.5t126 210.5l-33 -4q-16 162 -26.5 327.5t-22.5 344.5q-6 86 -12 173t-12.5 164.5t-11.5 140t-7 99.5l205 16q2 -37 7 -102t11.5 -144t11.5 -163t11 -158q6 -88 11 -155.5t8 -122t6.5 -96t5.5 -76.5q18 29 42.5 69.5t55.5 88.5t63.5 100.5 t65.5 103.5q41 66 83 129.5t89 134t101.5 150.5t121.5 178l168 -119q-55 -82 -114.5 -169t-111.5 -167t-95 -144.5t-68 -103.5q-88 -139 -184.5 -292.5t-186.5 -300t-166.5 -273.5t-125.5 -213zM573 1575l78 127l152 -98l-80 -127zM920 1575l79 127l150 -98l-78 -127z" />
<glyph unicode="&#x2c6;" d="M524 1290q117 59 205 107.5t174 93.5l88 -18q33 -43 73 -103.5t99 -142.5l-110 -78l-142 194l-336 -172z" />
<glyph unicode="&#x2dc;" d="M399 1319q66 72 107 114t100 50q31 4 53.5 1t40 -13.5t35 -29t39.5 -44.5q14 -16 33.5 -37t30.5 -23q12 -2 38.5 23.5t77.5 87.5l109 -90q-125 -156 -209 -168q-43 -6 -82 13.5t-84 76.5q-12 16 -28.5 33.5t-36.5 21.5q-12 2 -38 -23.5t-75 -84.5z" />
<glyph unicode="&#x2000;" horiz-adv-x="1045" />
<glyph unicode="&#x2001;" horiz-adv-x="2091" />
<glyph unicode="&#x2002;" horiz-adv-x="1045" />
<glyph unicode="&#x2003;" horiz-adv-x="2091" />
<glyph unicode="&#x2004;" horiz-adv-x="697" />
<glyph unicode="&#x2005;" horiz-adv-x="522" />
<glyph unicode="&#x2006;" horiz-adv-x="348" />
<glyph unicode="&#x2007;" horiz-adv-x="348" />
<glyph unicode="&#x2008;" horiz-adv-x="261" />
<glyph unicode="&#x2009;" horiz-adv-x="418" />
<glyph unicode="&#x200a;" horiz-adv-x="116" />
<glyph unicode="&#x2010;" horiz-adv-x="634" d="M96 741l414 9l4 -185l-414 -8z" />
<glyph unicode="&#x2011;" horiz-adv-x="634" d="M96 741l414 9l4 -185l-414 -8z" />
<glyph unicode="&#x2012;" horiz-adv-x="634" d="M96 741l414 9l4 -185l-414 -8z" />
<glyph unicode="&#x2013;" horiz-adv-x="1052" d="M96 524l4 185q98 -2 179 -3t178 1q66 0 117 1t99 1h99h119v-185h-119t-98 -1t-97.5 -1h-115.5h-182t-183 2z" />
<glyph unicode="&#x2014;" horiz-adv-x="1918" d="M96 524l4 185q186 -4 374 -2t380 2h825v-185h-442.5t-364.5 -2q-88 0 -188 -1t-201.5 -1t-201 1t-185.5 3z" />
<glyph unicode="&#x2018;" horiz-adv-x="198" d="M238 1407l163 20q10 -90 25.5 -196.5t24.5 -198.5l-164 -16q-6 53 -12.5 100t-11.5 94t-11 95.5t-14 101.5z" />
<glyph unicode="&#x2019;" horiz-adv-x="198" d="M199 1071q59 92 116.5 185.5t118.5 195.5l139 -86q-25 -43 -56.5 -96t-65 -106.5t-64.5 -102.5t-53 -84z" />
<glyph unicode="&#x201a;" horiz-adv-x="198" d="M-385 -293q59 92 116.5 185.5t118.5 195.5l140 -86q-25 -43 -56.5 -96t-65.5 -106.5t-64.5 -102.5t-53.5 -84z" />
<glyph unicode="&#x201c;" horiz-adv-x="471" d="M125 1407l164 20q12 -102 25.5 -206.5t23.5 -186.5l-164 -20q-10 92 -23.5 192.5t-25.5 200.5zM408 1407l163 20q6 -55 12.5 -100t12.5 -89t12 -93t13 -111l-164 -20q-10 92 -23.5 181t-25.5 212z" />
<glyph unicode="&#x201d;" horiz-adv-x="466" d="M152 1065q53 92 108 190.5t113 202.5l143 -82q-27 -49 -50.5 -91t-49 -87t-55 -96t-66.5 -119zM434 1065q53 92 109.5 193.5t111.5 199.5l144 -82q-55 -98 -111.5 -197.5t-109.5 -195.5z" />
<glyph unicode="&#x201e;" horiz-adv-x="432" d="M-264 -301q51 86 108.5 188.5t110.5 200.5l143 -78q-47 -90 -102 -191.5t-121 -205.5zM16 -303q29 51 55.5 97t53.5 93t54.5 96.5t58.5 104.5l143 -78q-27 -47 -56.5 -100t-59 -105.5t-57.5 -101.5t-48 -88z" />
<glyph unicode="&#x2022;" horiz-adv-x="694" d="M31 494q0 43 15 85t45 75.5t75 55t104 21.5q41 0 82 -14.5t75 -44t54.5 -73.5t20.5 -101q0 -47 -17.5 -90t-49.5 -76t-76 -53.5t-95 -20.5q-35 0 -74.5 12.5t-75.5 41t-59.5 72.5t-23.5 110z" />
<glyph unicode="&#x2026;" horiz-adv-x="1351" d="M-76 55l99 172l176 -102l-99 -172zM358 57l99 172l176 -102l-98 -172zM799 57l98 172l176 -102l-98 -172z" />
<glyph unicode="&#x202f;" horiz-adv-x="418" />
<glyph unicode="&#x2039;" horiz-adv-x="622" d="M-39 555l29 137q160 111 244.5 178.5t121.5 100.5l136 -152q-47 -41 -123 -101.5t-183 -137.5q14 -23 37 -55.5t48.5 -71.5l51 -78t48.5 -74l-176 -102q-55 84 -120 181t-114 175z" />
<glyph unicode="&#x203a;" horiz-adv-x="622" d="M-10 348q68 59 140.5 115.5t162.5 122.5q-35 53 -85 129t-97 141l168 119q31 -45 63.5 -93t64 -95.5t59.5 -93.5t50 -85l-29 -135q-80 -55 -131 -94t-90 -68.5t-71.5 -57.5t-73.5 -60z" />
<glyph unicode="&#x205f;" horiz-adv-x="522" />
<glyph unicode="&#x2122;" horiz-adv-x="1370" d="M262 1018v102h363v-102h-13q-4 23 -11 40t-23 27q-23 14 -49.5 15.5t-51.5 -2.5v-357q0 -18 17 -30q18 -14 38 -9v-10h-182v10q20 -4 39 7q18 12 19 32v357q-27 4 -52.5 3t-46.5 -16q-18 -14 -26.5 -29.5t-12.5 -37.5h-8zM674 1108v12h125l151 -334l158 334h121v-12 q-10 0 -21.5 -1t-19.5 -7q-18 -14 -19 -33v-326q0 -14 15 -28q14 -18 41 -11v-10h-174v10q25 -6 41 11l8 12t4 16v308l-166 -363h-12l-170 363v-308q0 -18 14 -30q6 -4 17.5 -8.5t21.5 -0.5v-10h-129v10q10 -4 22.5 0.5t16.5 8.5q14 14 14 30v326q0 20 -16 33q-6 6 -18.5 8 t-24.5 0z" />
<glyph unicode="&#x25fc;" horiz-adv-x="1034" d="M0 0v1034h1034v-1034h-1034z" />
</font>
</defs>
</svg>
